<svg xmlns="http://www.w3.org/2000/svg" viewBox="0 0 224 168"><path fill="#2D3134" d="M224 24L176 0 0 88v8l48 24 176-88z"/><path fill="#999" d="M132 142l10-5-10-5zM147 135l10-5-10-5zM162 127l10-5-10-5z"/><path fill="#999" d="M132 142l10-5-10-5zM147 135l10-5-10-5zM162 127l10-5-10-5z"/><path d="M132 140l10-5-10-5zM147 133l10-5-10-5zM162 125l10-5-10-5z" opacity=".3"/><path fill="#762C07" d="M0 144l48 24v-56L0 88z"/><g fill="#BAA794" opacity=".5"><path d="M4 143l-3-1.5v2l3 1.5zM8 145l-3-1.5v2l3 1.5zM12 147l-3-1.5v2l3 1.5zM16 149l-3-1.5v2l3 1.5zM20 151l-3-1.5v2l3 1.5zM24 153l-3-1.5v2l3 1.5zM28 155l-3-1.5v2l3 1.5zM32 157l-3-1.5v2l3 1.5zM36 159l-3-1.5v2l3 1.5zM40 161l-3-1.5v2l3 1.5zM44 163l-3-1.5v2l3 1.5zM48 165l-3-1.5v2l3 1.5zM2 139l-2-1v2l2 1zM6 141l-3-1.5v2l3 1.5zM10 143l-3-1.5v2l3 1.5zM14 145l-3-1.5v2l3 1.5zM18 147l-3-1.5v2l3 1.5zM22 149l-3-1.5v2l3 1.5zM26 151l-3-1.5v2l3 1.5zM30 153l-3-1.5v2l3 1.5zM34 155l-3-1.5v2l3 1.5zM38 157l-3-1.5v2l3 1.5zM42 159l-3-1.5v2l3 1.5zM46 161l-3-1.5v2l3 1.5zM48 162l-1-.5v2l1 .5zM4 137l-3-1.5v2l3 1.5zM8 139l-3-1.5v2l3 1.5zM12 141l-3-1.5v2l3 1.5zM16 143l-3-1.5v2l3 1.5zM20 145l-3-1.5v2l3 1.5zM24 147l-3-1.5v2l3 1.5zM28 149l-3-1.5v2l3 1.5zM32 151l-3-1.5v2l3 1.5zM36 153l-3-1.5v2l3 1.5zM40 155l-3-1.5v2l3 1.5zM44 157l-3-1.5v2l3 1.5zM48 159l-3-1.5v2l3 1.5zM2 133l-2-1v2l2 1zM6 135l-3-1.5v2l3 1.5zM10 137l-3-1.5v2l3 1.5zM14 139l-3-1.5v2l3 1.5zM18 141l-3-1.5v2l3 1.5zM22 143l-3-1.5v2l3 1.5zM26 145l-3-1.5v2l3 1.5zM30 147l-3-1.5v2l3 1.5zM34 149l-3-1.5v2l3 1.5zM38 151l-3-1.5v2l3 1.5zM42 153l-3-1.5v2l3 1.5zM46 155l-3-1.5v2l3 1.5zM48 156l-1-.5v2l1 .5zM4 131l-3-1.5v2l3 1.5zM8 133l-3-1.5v2l3 1.5zM12 135l-3-1.5v2l3 1.5zM16 137l-3-1.5v2l3 1.5zM20 139l-3-1.5v2l3 1.5zM24 141l-3-1.5v2l3 1.5zM28 143l-3-1.5v2l3 1.5zM32 145l-3-1.5v2l3 1.5zM36 147l-3-1.5v2l3 1.5zM40 149l-3-1.5v2l3 1.5zM44 151l-3-1.5v2l3 1.5zM48 153l-3-1.5v2l3 1.5zM2 127l-2-1v2l2 1zM6 129l-3-1.5v2l3 1.5zM10 131l-3-1.5v2l3 1.5zM14 133l-3-1.5v2l3 1.5zM18 135l-3-1.5v2l3 1.5zM22 137l-3-1.5v2l3 1.5zM26 139l-3-1.5v2l3 1.5zM30 141l-3-1.5v2l3 1.5zM34 143l-3-1.5v2l3 1.5zM38 145l-3-1.5v2l3 1.5zM42 147l-3-1.5v2l3 1.5zM46 149l-3-1.5v2l3 1.5zM48 150l-1-.5v2l1 .5zM4 125l-3-1.5v2l3 1.5zM8 127l-3-1.5v2l3 1.5zM12 129l-3-1.5v2l3 1.5zM16 131l-3-1.5v2l3 1.5zM20 133l-3-1.5v2l3 1.5zM24 135l-3-1.5v2l3 1.5zM28 137l-3-1.5v2l3 1.5zM32 139l-3-1.5v2l3 1.5zM36 141l-3-1.5v2l3 1.5zM40 143l-3-1.5v2l3 1.5zM44 145l-3-1.5v2l3 1.5zM48 147l-3-1.5v2l3 1.5zM2 121l-2-1v2l2 1zM6 123l-3-1.5v2l3 1.5zM10 125l-3-1.5v2l3 1.5zM14 127l-3-1.5v2l3 1.5zM18 129l-3-1.5v2l3 1.5zM22 131l-3-1.5v2l3 1.5zM26 133l-3-1.5v2l3 1.5zM30 135l-3-1.5v2l3 1.5zM34 137l-3-1.5v2l3 1.5zM38 139l-3-1.5v2l3 1.5zM42 141l-3-1.5v2l3 1.5zM46 143l-3-1.5v2l3 1.5zM48 144l-1-.5v2l1 .5zM4 119l-3-1.5v2l3 1.5zM8 121l-3-1.5v2l3 1.5zM12 123l-3-1.5v2l3 1.5zM16 125l-3-1.5v2l3 1.5zM20 127l-3-1.5v2l3 1.5zM24 129l-3-1.5v2l3 1.5zM28 131l-3-1.5v2l3 1.5zM32 133l-3-1.5v2l3 1.5zM36 135l-3-1.5v2l3 1.5zM40 137l-3-1.5v2l3 1.5zM44 139l-3-1.5v2l3 1.5zM48 141l-3-1.5v2l3 1.5zM2 115l-2-1v2l2 1zM6 117l-3-1.5v2l3 1.5zM10 119l-3-1.5v2l3 1.5zM14 121l-3-1.5v2l3 1.5zM18 123l-3-1.5v2l3 1.5zM22 125l-3-1.5v2l3 1.5zM26 127l-3-1.5v2l3 1.5zM30 129l-3-1.5v2l3 1.5zM34 131l-3-1.5v2l3 1.5zM38 133l-3-1.5v2l3 1.5zM42 135l-3-1.5v2l3 1.5zM46 137l-3-1.5v2l3 1.5zM48 138l-1-.5v2l1 .5zM4 113l-3-1.5v2l3 1.5zM8 115l-3-1.5v2l3 1.5zM12 117l-3-1.5v2l3 1.5zM16 119l-3-1.5v2l3 1.5zM20 121l-3-1.5v2l3 1.5zM24 123l-3-1.5v2l3 1.5zM28 125l-3-1.5v2l3 1.5zM32 127l-3-1.5v2l3 1.5zM36 129l-3-1.5v2l3 1.5zM40 131l-3-1.5v2l3 1.5zM44 133l-3-1.5v2l3 1.5zM48 135l-3-1.5v2l3 1.5zM2 109l-2-1v2l2 1zM6 111l-3-1.5v2l3 1.5zM10 113l-3-1.5v2l3 1.5zM14 115l-3-1.5v2l3 1.5zM18 117l-3-1.5v2l3 1.5zM22 119l-3-1.5v2l3 1.5zM26 121l-3-1.5v2l3 1.5zM30 123l-3-1.5v2l3 1.5zM34 125l-3-1.5v2l3 1.5zM38 127l-3-1.5v2l3 1.5zM42 129l-3-1.5v2l3 1.5zM46 131l-3-1.5v2l3 1.5zM48 132l-1-.5v2l1 .5zM4 107l-3-1.5v2l3 1.5zM8 109l-3-1.5v2l3 1.5zM12 111l-3-1.5v2l3 1.5zM16 113l-3-1.5v2l3 1.5zM20 115l-3-1.5v2l3 1.5zM24 117l-3-1.5v2l3 1.5zM28 119l-3-1.5v2l3 1.5zM32 121l-3-1.5v2l3 1.5zM36 123l-3-1.5v2l3 1.5zM40 125l-3-1.5v2l3 1.5zM44 127l-3-1.5v2l3 1.5zM48 129l-3-1.5v2l3 1.5zM2 103l-2-1v2l2 1zM6 105l-3-1.5v2l3 1.5zM10 107l-3-1.5v2l3 1.5zM14 109l-3-1.5v2l3 1.5zM18 111l-3-1.5v2l3 1.5zM22 113l-3-1.5v2l3 1.5zM26 115l-3-1.5v2l3 1.5zM30 117l-3-1.5v2l3 1.5zM34 119l-3-1.5v2l3 1.5zM38 121l-3-1.5v2l3 1.5zM42 123l-3-1.5v2l3 1.5zM46 125l-3-1.5v2l3 1.5zM48 126l-1-.5v2l1 .5zM4 101l-3-1.5v2l3 1.5zM8 103l-3-1.5v2l3 1.5zM12 105l-3-1.5v2l3 1.5zM16 107l-3-1.5v2l3 1.5zM20 109l-3-1.5v2l3 1.5zM24 111l-3-1.5v2l3 1.5zM28 113l-3-1.5v2l3 1.5zM32 115l-3-1.5v2l3 1.5zM36 117l-3-1.5v2l3 1.5zM40 119l-3-1.5v2l3 1.5zM44 121l-3-1.5v2l3 1.5zM48 123l-3-1.5v2l3 1.5zM2 97l-2-1v2l2 1zM6 99l-3-1.5v2l3 1.5zM10 101l-3-1.5v2l3 1.5zM14 103l-3-1.5v2l3 1.5zM18 105l-3-1.5v2l3 1.5zM22 107l-3-1.5v2l3 1.5zM26 109l-3-1.5v2l3 1.5zM30 111l-3-1.5v2l3 1.5zM34 113l-3-1.5v2l3 1.5zM38 115l-3-1.5v2l3 1.5zM42 117l-3-1.5v2l3 1.5zM46 119l-3-1.5v2l3 1.5zM48 120l-1-.5v2l1 .5zM4 95l-3-1.5v2L4 97zM8 97l-3-1.5v2L8 99zM12 99l-3-1.5v2l3 1.5zM16 101l-3-1.5v2l3 1.5zM20 103l-3-1.5v2l3 1.5zM24 105l-3-1.5v2l3 1.5zM28 107l-3-1.5v2l3 1.5zM32 109l-3-1.5v2l3 1.5zM36 111l-3-1.5v2l3 1.5zM40 113l-3-1.5v2l3 1.5zM44 115l-3-1.5v2l3 1.5zM48 117l-3-1.5v2l3 1.5zM2 91l-2-1v2l2 1zM6 93l-3-1.5v2L6 95zM10 95l-3-1.5v2l3 1.5zM14 97l-3-1.5v2l3 1.5zM18 99l-3-1.5v2l3 1.5zM22 101l-3-1.5v2l3 1.5zM26 103l-3-1.5v2l3 1.5zM30 105l-3-1.5v2l3 1.5zM34 107l-3-1.5v2l3 1.5zM38 109l-3-1.5v2l3 1.5zM42 111l-3-1.5v2l3 1.5zM46 113l-3-1.5v2l3 1.5zM48 114l-1-.5v2l1 .5z"/></g><path fill="#BAA794" d="M38.5 127.3l.9.5C42 129 44 132 44 134.5v9.5l-10-5v-9.5c0-2.5 2-3.5 4.5-2.2z"/><path fill="#39C" d="M39 128.5c2.2 1.1 4 3.8 4 6v8l-8-4v-8c0-2.2 1.8-3.1 4-2z"/><path fill="#FFF" d="M43 142.5l-8-4v-4z" opacity=".2"/><path d="M39 128.5c-2.2-1.1-4-.2-4 2v1c0-2.2 1.8-3.1 4-2s4 3.8 4 6v-1c0-2.2-1.8-4.9-4-6z" opacity=".15"/><path fill="#BAA794" d="M41 141.5l-1-.5v-12l1 .5zM38 140l-1-.5v-12l1 .5z"/><path fill="#BAA794" d="M43 135.5l-8-4v-1l8 4zM38.5 145.3l.9.5C42 147 44 150 44 152.5v9.5l-10-5v-9.5c0-2.5 2-3.5 4.5-2.2z"/><path fill="#39C" d="M39 146.5c2.2 1.1 4 3.8 4 6v8l-8-4v-8c0-2.2 1.8-3.1 4-2z"/><path fill="#FFF" d="M43 160.5l-8-4v-8z" opacity=".2"/><path d="M39 146.5c-2.2-1.1-4-.2-4 2v1c0-2.2 1.8-3.1 4-2s4 3.8 4 6v-1c0-2.2-1.8-4.9-4-6z" opacity=".15"/><path fill="#BAA794" d="M41 159.5l-1-.5v-12l1 .5zM38 158l-1-.5v-12l1 .5z"/><path fill="#BAA794" d="M43 153.5l-8-4v-1l8 4zM8.5 112.3l.9.5C12 114 14 117 14 119.5v9.5l-10-5v-9.5c0-2.5 2-3.5 4.5-2.2z"/><path fill="#39C" d="M9 113.5c2.2 1.1 4 3.8 4 6v8l-8-4v-8c0-2.2 1.8-3.1 4-2z"/><path fill="#FFF" d="M13 127.5l-8-4v-8z" opacity=".2"/><path d="M9 113.5c-2.2-1.1-4-.2-4 2v1c0-2.2 1.8-3.1 4-2s4 3.8 4 6v-1c0-2.2-1.8-4.9-4-6z" opacity=".15"/><path fill="#BAA794" d="M11 126.5l-1-.5v-12l1 .5zM8 125l-1-.5v-12l1 .5z"/><path fill="#BAA794" d="M13 120.5l-8-4v-1l8 4zM23.5 119.8l.9.5c2.5 1.3 4.5 4.3 4.5 6.8v9.5l-10-5V122c.1-2.5 2.1-3.5 4.6-2.2z"/><path fill="#39C" d="M24 121c2.2 1.1 4 3.8 4 6v8l-8-4v-8c0-2.2 1.8-3.1 4-2z"/><path d="M24 121c-2.2-1.1-4-.2-4 2v1c0-2.2 1.8-3.1 4-2s4 3.8 4 6v-1c0-2.2-1.8-4.9-4-6z" opacity=".15"/><path fill="#BAA794" d="M26 134l-1-.5v-12l1 .5zM23 132.5l-1-.5v-12l1 .5z"/><path fill="#BAA794" d="M28 128l-8-4v-1l8 4zM8.5 130.3l.9.5C12 132 14 135 14 137.5v9.5l-10-5v-9.5c0-2.5 2-3.5 4.5-2.2z"/><path fill="#39C" d="M9 131.5c2.2 1.1 4 3.8 4 6v8l-8-4v-8c0-2.2 1.8-3.1 4-2z"/><path d="M9 131.5c-2.2-1.1-4-.2-4 2v1c0-2.2 1.8-3.1 4-2s4 3.8 4 6v-1c0-2.2-1.8-4.9-4-6z" opacity=".15"/><path fill="#BAA794" d="M11 144.5l-1-.5v-12l1 .5zM8 143l-1-.5v-12l1 .5z"/><path fill="#BAA794" d="M13 138.5l-8-4v-1l8 4zM23.5 137.8l.9.5c2.5 1.3 4.5 4.3 4.5 6.8v9.5l-10-5V140c.1-2.5 2.1-3.5 4.6-2.2z"/><path fill="#39C" d="M24 139c2.2 1.1 4 3.8 4 6v8l-8-4v-8c0-2.2 1.8-3.1 4-2z"/><path d="M24 139c-2.2-1.1-4-.2-4 2v1c0-2.2 1.8-3.1 4-2s4 3.8 4 6v-1c0-2.2-1.8-4.9-4-6z" opacity=".15"/><path fill="#BAA794" d="M26 152l-1-.5v-12l1 .5zM23 150.5l-1-.5v-12l1 .5z"/><path fill="#BAA794" d="M28 146l-8-4v-1l8 4zM38.5 112.3l.9.5C42 114 44 117 44 119.5v6.5l-10-5v-6.5c0-2.5 2-3.5 4.5-2.2z"/><path fill="#39C" d="M39 113.5c2.2 1.1 4 3.8 4 6v5l-8-4v-5c0-2.2 1.8-3.1 4-2z"/><path d="M39 113.5c-2.2-1.1-4-.2-4 2v1c0-2.2 1.8-3.1 4-2s4 3.8 4 6v-1c0-2.2-1.8-4.9-4-6z" opacity=".15"/><path fill="#BAA794" d="M41 123.5l-1-.5v-9l1 .5zM38 122l-1-.5v-9l1 .5z"/><path fill="#BAA794" d="M43 120.5l-8-4v-1l8 4z"/><g><path fill="#BAA794" d="M23.5 104.8l.9.5c2.5 1.3 4.5 4.3 4.5 6.8v6.5l-10-5V107c.1-2.5 2.1-3.5 4.6-2.2z"/><path fill="#39C" d="M24 106c2.2 1.1 4 3.8 4 6v5l-8-4v-5c0-2.2 1.8-3.1 4-2z"/><path fill="#FFF" d="M28 117l-8-4v-3z" opacity=".2"/><path d="M24 106c-2.2-1.1-4-.2-4 2v1c0-2.2 1.8-3.1 4-2s4 3.8 4 6v-1c0-2.2-1.8-4.9-4-6z" opacity=".15"/><path fill="#BAA794" d="M26 116l-1-.5v-9l1 .5zM23 114.5l-1-.5v-9l1 .5z"/><path fill="#BAA794" d="M28 113l-8-4v-1l8 4z"/></g><g><path fill="#BAA794" d="M8.5 97.3l.9.5C12 99 14 102 14 104.5v6.5l-10-5v-6.5C4 97 6 96 8.5 97.3z"/><path fill="#39C" d="M9 98.5c2.2 1.1 4 3.8 4 6v5l-8-4v-5c0-2.2 1.8-3.1 4-2z"/><path d="M9 98.5c-2.2-1.1-4-.2-4 2v1c0-2.2 1.8-3.1 4-2s4 3.8 4 6v-1c0-2.2-1.8-4.9-4-6z" opacity=".15"/><path fill="#BAA794" d="M11 108.5l-1-.5v-9l1 .5zM8 107l-1-.5v-9l1 .5z"/><path fill="#BAA794" d="M13 105.5l-8-4v-1l8 4z"/></g><path fill="#F8EBCB" d="M14 147l-10-5v-1l10 5zM29 154.5l-10-5v-1l10 5zM44 162l-10-5v-1l10 5zM14 129l-10-5v-1l10 5zM29 136.5l-10-5v-1l10 5zM44 144l-10-5v-1l10 5zM14 111l-10-5v-1l10 5zM29 118.5l-10-5v-1l10 5zM44 126l-10-5v-1l10 5z"/><path d="M0 144l48 24v-56L0 88z" opacity=".06"/><g><path fill="#762C07" d="M48 168l64-32V80l-64 32z"/><g fill="#BAA794" opacity=".5"><path d="M52 163l-3 1.5v2l3-1.5zM56 161l-3 1.5v2l3-1.5zM60 159l-3 1.5v2l3-1.5zM64 157l-3 1.5v2l3-1.5zM68 155l-3 1.5v2l3-1.5zM72 153l-3 1.5v2l3-1.5zM76 151l-3 1.5v2l3-1.5zM80 149l-3 1.5v2l3-1.5zM84 147l-3 1.5v2l3-1.5zM88 145l-3 1.5v2l3-1.5zM92 143l-3 1.5v2l3-1.5zM96 141l-3 1.5v2l3-1.5zM100 139l-3 1.5v2l3-1.5zM104 137l-3 1.5v2l3-1.5zM108 135l-3 1.5v2l3-1.5zM112 133l-3 1.5v2l3-1.5zM50 161l-2 1v2l2-1zM54 159l-3 1.5v2l3-1.5zM58 157l-3 1.5v2l3-1.5zM62 155l-3 1.5v2l3-1.5zM66 153l-3 1.5v2l3-1.5zM70 151l-3 1.5v2l3-1.5zM74 149l-3 1.5v2l3-1.5zM78 147l-3 1.5v2l3-1.5zM82 145l-3 1.5v2l3-1.5zM86 143l-3 1.5v2l3-1.5zM90 141l-3 1.5v2l3-1.5zM94 139l-3 1.5v2l3-1.5zM98 137l-3 1.5v2l3-1.5zM102 135l-3 1.5v2l3-1.5zM106 133l-3 1.5v2l3-1.5zM110 131l-3 1.5v2l3-1.5zM112 130l-1 .5v2l1-.5zM52 157l-3 1.5v2l3-1.5zM56 155l-3 1.5v2l3-1.5zM60 153l-3 1.5v2l3-1.5zM64 151l-3 1.5v2l3-1.5zM68 149l-3 1.5v2l3-1.5zM72 147l-3 1.5v2l3-1.5zM76 145l-3 1.5v2l3-1.5zM80 143l-3 1.5v2l3-1.5zM84 141l-3 1.5v2l3-1.5zM88 139l-3 1.5v2l3-1.5zM92 137l-3 1.5v2l3-1.5zM96 135l-3 1.5v2l3-1.5zM100 133l-3 1.5v2l3-1.5zM104 131l-3 1.5v2l3-1.5zM108 129l-3 1.5v2l3-1.5zM112 127l-3 1.5v2l3-1.5zM50 155l-2 1v2l2-1zM54 153l-3 1.5v2l3-1.5zM58 151l-3 1.5v2l3-1.5zM62 149l-3 1.5v2l3-1.5zM66 147l-3 1.5v2l3-1.5zM70 145l-3 1.5v2l3-1.5zM74 143l-3 1.5v2l3-1.5zM78 141l-3 1.5v2l3-1.5zM82 139l-3 1.5v2l3-1.5zM86 137l-3 1.5v2l3-1.5zM90 135l-3 1.5v2l3-1.5zM94 133l-3 1.5v2l3-1.5zM98 131l-3 1.5v2l3-1.5zM102 129l-3 1.5v2l3-1.5zM106 127l-3 1.5v2l3-1.5zM110 125l-3 1.5v2l3-1.5zM112 124l-1 .5v2l1-.5zM52 151l-3 1.5v2l3-1.5zM56 149l-3 1.5v2l3-1.5zM60 147l-3 1.5v2l3-1.5zM64 145l-3 1.5v2l3-1.5zM68 143l-3 1.5v2l3-1.5zM72 141l-3 1.5v2l3-1.5zM76 139l-3 1.5v2l3-1.5zM80 137l-3 1.5v2l3-1.5zM84 135l-3 1.5v2l3-1.5zM88 133l-3 1.5v2l3-1.5zM92 131l-3 1.5v2l3-1.5zM96 129l-3 1.5v2l3-1.5zM100 127l-3 1.5v2l3-1.5zM104 125l-3 1.5v2l3-1.5zM108 123l-3 1.5v2l3-1.5zM112 121l-3 1.5v2l3-1.5zM50 149l-2 1v2l2-1zM54 147l-3 1.5v2l3-1.5zM58 145l-3 1.5v2l3-1.5zM62 143l-3 1.5v2l3-1.5zM66 141l-3 1.5v2l3-1.5zM70 139l-3 1.5v2l3-1.5zM74 137l-3 1.5v2l3-1.5zM78 135l-3 1.5v2l3-1.5zM82 133l-3 1.5v2l3-1.5zM86 131l-3 1.5v2l3-1.5zM90 129l-3 1.5v2l3-1.5zM94 127l-3 1.5v2l3-1.5zM98 125l-3 1.5v2l3-1.5zM102 123l-3 1.5v2l3-1.5zM106 121l-3 1.5v2l3-1.5zM110 119l-3 1.5v2l3-1.5zM112 118l-1 .5v2l1-.5zM52 145l-3 1.5v2l3-1.5zM56 143l-3 1.5v2l3-1.5zM60 141l-3 1.5v2l3-1.5zM64 139l-3 1.5v2l3-1.5zM68 137l-3 1.5v2l3-1.5zM72 135l-3 1.5v2l3-1.5zM76 133l-3 1.5v2l3-1.5zM80 131l-3 1.5v2l3-1.5zM84 129l-3 1.5v2l3-1.5zM88 127l-3 1.5v2l3-1.5zM92 125l-3 1.5v2l3-1.5zM96 123l-3 1.5v2l3-1.5zM100 121l-3 1.5v2l3-1.5zM104 119l-3 1.5v2l3-1.5zM108 117l-3 1.5v2l3-1.5zM112 115l-3 1.5v2l3-1.5zM50 143l-2 1v2l2-1zM54 141l-3 1.5v2l3-1.5zM58 139l-3 1.5v2l3-1.5zM62 137l-3 1.5v2l3-1.5zM66 135l-3 1.5v2l3-1.5zM70 133l-3 1.5v2l3-1.5zM74 131l-3 1.5v2l3-1.5zM78 129l-3 1.5v2l3-1.5zM82 127l-3 1.5v2l3-1.5zM86 125l-3 1.5v2l3-1.5zM90 123l-3 1.5v2l3-1.5zM94 121l-3 1.5v2l3-1.5zM98 119l-3 1.5v2l3-1.5zM102 117l-3 1.5v2l3-1.5zM106 115l-3 1.5v2l3-1.5zM110 113l-3 1.5v2l3-1.5zM112 112l-1 .5v2l1-.5zM52 139l-3 1.5v2l3-1.5zM56 137l-3 1.5v2l3-1.5zM60 135l-3 1.5v2l3-1.5zM64 133l-3 1.5v2l3-1.5zM68 131l-3 1.5v2l3-1.5zM72 129l-3 1.5v2l3-1.5zM76 127l-3 1.5v2l3-1.5zM80 125l-3 1.5v2l3-1.5zM84 123l-3 1.5v2l3-1.5zM88 121l-3 1.5v2l3-1.5zM92 119l-3 1.5v2l3-1.5zM96 117l-3 1.5v2l3-1.5zM100 115l-3 1.5v2l3-1.5zM104 113l-3 1.5v2l3-1.5zM108 111l-3 1.5v2l3-1.5zM112 109l-3 1.5v2l3-1.5zM50 137l-2 1v2l2-1zM54 135l-3 1.5v2l3-1.5zM58 133l-3 1.5v2l3-1.5zM62 131l-3 1.5v2l3-1.5zM66 129l-3 1.5v2l3-1.5zM70 127l-3 1.5v2l3-1.5zM74 125l-3 1.5v2l3-1.5zM78 123l-3 1.5v2l3-1.5zM82 121l-3 1.5v2l3-1.5zM86 119l-3 1.5v2l3-1.5zM90 117l-3 1.5v2l3-1.5zM94 115l-3 1.5v2l3-1.5zM98 113l-3 1.5v2l3-1.5zM102 111l-3 1.5v2l3-1.5zM106 109l-3 1.5v2l3-1.5zM110 107l-3 1.5v2l3-1.5zM112 106l-1 .5v2l1-.5zM52 133l-3 1.5v2l3-1.5zM56 131l-3 1.5v2l3-1.5zM60 129l-3 1.5v2l3-1.5zM64 127l-3 1.5v2l3-1.5zM68 125l-3 1.5v2l3-1.5zM72 123l-3 1.5v2l3-1.5zM76 121l-3 1.5v2l3-1.5zM80 119l-3 1.5v2l3-1.5zM84 117l-3 1.5v2l3-1.5zM88 115l-3 1.5v2l3-1.5zM92 113l-3 1.5v2l3-1.5zM96 111l-3 1.5v2l3-1.5zM100 109l-3 1.5v2l3-1.5zM104 107l-3 1.5v2l3-1.5zM108 105l-3 1.5v2l3-1.5zM112 103l-3 1.5v2l3-1.5zM50 131l-2 1v2l2-1zM54 129l-3 1.5v2l3-1.5zM58 127l-3 1.5v2l3-1.5zM62 125l-3 1.5v2l3-1.5zM66 123l-3 1.5v2l3-1.5zM70 121l-3 1.5v2l3-1.5zM74 119l-3 1.5v2l3-1.5zM78 117l-3 1.5v2l3-1.5zM82 115l-3 1.5v2l3-1.5zM86 113l-3 1.5v2l3-1.5zM90 111l-3 1.5v2l3-1.5zM94 109l-3 1.5v2l3-1.5zM98 107l-3 1.5v2l3-1.5zM102 105l-3 1.5v2l3-1.5zM106 103l-3 1.5v2l3-1.5zM110 101l-3 1.5v2l3-1.5zM112 100l-1 .5v2l1-.5zM52 127l-3 1.5v2l3-1.5zM56 125l-3 1.5v2l3-1.5zM60 123l-3 1.5v2l3-1.5zM64 121l-3 1.5v2l3-1.5zM68 119l-3 1.5v2l3-1.5zM72 117l-3 1.5v2l3-1.5zM76 115l-3 1.5v2l3-1.5zM80 113l-3 1.5v2l3-1.5zM84 111l-3 1.5v2l3-1.5zM88 109l-3 1.5v2l3-1.5zM92 107l-3 1.5v2l3-1.5zM96 105l-3 1.5v2l3-1.5zM100 103l-3 1.5v2l3-1.5zM104 101l-3 1.5v2l3-1.5zM108 99l-3 1.5v2l3-1.5zM112 97l-3 1.5v2l3-1.5zM50 125l-2 1v2l2-1zM54 123l-3 1.5v2l3-1.5zM58 121l-3 1.5v2l3-1.5zM62 119l-3 1.5v2l3-1.5zM66 117l-3 1.5v2l3-1.5zM70 115l-3 1.5v2l3-1.5zM74 113l-3 1.5v2l3-1.5zM78 111l-3 1.5v2l3-1.5zM82 109l-3 1.5v2l3-1.5zM86 107l-3 1.5v2l3-1.5zM90 105l-3 1.5v2l3-1.5zM94 103l-3 1.5v2l3-1.5zM98 101l-3 1.5v2l3-1.5zM102 99l-3 1.5v2l3-1.5zM106 97l-3 1.5v2l3-1.5zM110 95l-3 1.5v2l3-1.5zM112 94l-1 .5v2l1-.5zM52 121l-3 1.5v2l3-1.5zM56 119l-3 1.5v2l3-1.5zM60 117l-3 1.5v2l3-1.5zM64 115l-3 1.5v2l3-1.5zM68 113l-3 1.5v2l3-1.5zM72 111l-3 1.5v2l3-1.5zM76 109l-3 1.5v2l3-1.5zM80 107l-3 1.5v2l3-1.5zM84 105l-3 1.5v2l3-1.5zM88 103l-3 1.5v2l3-1.5zM92 101l-3 1.5v2l3-1.5zM96 99l-3 1.5v2l3-1.5zM100 97l-3 1.5v2l3-1.5zM104 95l-3 1.5v2l3-1.5zM108 93l-3 1.5v2l3-1.5zM112 91l-3 1.5v2l3-1.5zM50 119l-2 1v2l2-1zM54 117l-3 1.5v2l3-1.5zM58 115l-3 1.5v2l3-1.5zM62 113l-3 1.5v2l3-1.5zM66 111l-3 1.5v2l3-1.5zM70 109l-3 1.5v2l3-1.5zM74 107l-3 1.5v2l3-1.5zM78 105l-3 1.5v2l3-1.5zM82 103l-3 1.5v2l3-1.5zM86 101l-3 1.5v2l3-1.5zM90 99l-3 1.5v2l3-1.5zM94 97l-3 1.5v2l3-1.5zM98 95l-3 1.5v2l3-1.5zM102 93l-3 1.5v2l3-1.5zM106 91l-3 1.5v2l3-1.5zM110 89l-3 1.5v2l3-1.5zM112 88l-1 .5v2l1-.5zM52 115l-3 1.5v2l3-1.5zM56 113l-3 1.5v2l3-1.5zM60 111l-3 1.5v2l3-1.5zM64 109l-3 1.5v2l3-1.5zM68 107l-3 1.5v2l3-1.5zM72 105l-3 1.5v2l3-1.5zM76 103l-3 1.5v2l3-1.5zM80 101l-3 1.5v2l3-1.5zM84 99l-3 1.5v2l3-1.5zM88 97l-3 1.5v2l3-1.5zM92 95l-3 1.5v2l3-1.5zM96 93l-3 1.5v2l3-1.5zM100 91l-3 1.5v2l3-1.5zM104 89l-3 1.5v2l3-1.5zM108 87l-3 1.5v2l3-1.5zM112 85l-3 1.5v2l3-1.5zM50 113l-2 1v2l2-1zM54 111l-3 1.5v2l3-1.5zM58 109l-3 1.5v2l3-1.5zM62 107l-3 1.5v2l3-1.5zM66 105l-3 1.5v2l3-1.5zM70 103l-3 1.5v2l3-1.5zM74 101l-3 1.5v2l3-1.5zM78 99l-3 1.5v2l3-1.5zM82 97l-3 1.5v2l3-1.5zM86 95l-3 1.5v2l3-1.5zM90 93l-3 1.5v2l3-1.5zM94 91l-3 1.5v2l3-1.5zM98 89l-3 1.5v2l3-1.5zM102 87l-3 1.5v2l3-1.5zM106 85l-3 1.5v2l3-1.5zM110 83l-3 1.5v2l3-1.5zM112 82l-1 .5v2l1-.5z"/></g><path fill="#BAA794" d="M102.5 122.7l.9-.5c2.5-1.3 4.5-.2 4.5 2.3v9.5l-10 5v-9.5c.1-2.5 2.1-5.5 4.6-6.8z"/><path fill="#39C" d="M103 123.5c2.2-1.1 4-.2 4 2v8l-8 4v-8c0-2.2 1.8-4.9 4-6z"/><path fill="#FFF" d="M107 133.5l-8 4v-4z" opacity=".2"/><path d="M103 123.5c-2.2 1.1-4 3.8-4 6v1c0-2.2 1.8-4.9 4-6s4-.2 4 2v-1c0-2.2-1.8-3.1-4-2z" opacity=".15"/><path fill="#BAA794" d="M105 134.5l-1 .5v-12l1-.5zM102 136l-1 .5v-12l1-.5z"/><path fill="#BAA794" d="M107 126.5l-8 4v-1l8-4zM87.5 112.2l.9-.5c2.5-1.3 4.5-.2 4.5 2.3v9.5l-10 5V119c.1-2.5 2.1-5.5 4.6-6.8z"/><path fill="#39C" d="M88 113c2.2-1.1 4-.2 4 2v8l-8 4v-8c0-2.2 1.8-4.9 4-6z"/><path fill="#FFF" d="M92 123l-8 4v-4z" opacity=".2"/><path d="M88 113c-2.2 1.1-4 3.8-4 6v1c0-2.2 1.8-4.9 4-6s4-.2 4 2v-1c0-2.2-1.8-3.1-4-2z" opacity=".15"/><path fill="#BAA794" d="M90 124l-1 .5v-12l1-.5zM87 125.5l-1 .5v-12l1-.5z"/><path fill="#BAA794" d="M92 116l-8 4v-1l8-4zM87.5 130.2l.9-.5c2.5-1.3 4.5-.2 4.5 2.3v9.5l-10 5V137c.1-2.5 2.1-5.5 4.6-6.8z"/><path fill="#39C" d="M88 131c2.2-1.1 4-.2 4 2v8l-8 4v-8c0-2.2 1.8-4.9 4-6z"/><path fill="#FFF" d="M92 141l-8 4v-8z" opacity=".2"/><path d="M88 131c-2.2 1.1-4 3.8-4 6v1c0-2.2 1.8-4.9 4-6s4-.2 4 2v-1c0-2.2-1.8-3.1-4-2z" opacity=".15"/><path fill="#BAA794" d="M90 142l-1 .5v-12l1-.5zM87 143.5l-1 .5v-12l1-.5z"/><path fill="#BAA794" d="M92 134l-8 4v-1l8-4zM57.5 127.2l.9-.5c2.5-1.3 4.5-.2 4.5 2.3v9.5l-10 5V134c.1-2.5 2.1-5.5 4.6-6.8z"/><path fill="#39C" d="M58 128c2.2-1.1 4-.2 4 2v8l-8 4v-8c0-2.2 1.8-4.9 4-6z"/><path fill="#FFF" d="M62 138l-8 4v-8z" opacity=".2"/><path d="M58 128c-2.2 1.1-4 3.8-4 6v1c0-2.2 1.8-4.9 4-6s4-.2 4 2v-1c0-2.2-1.8-3.1-4-2z" opacity=".15"/><path fill="#BAA794" d="M60 139l-1 .5v-12l1-.5zM57 140.5l-1 .5v-12l1-.5z"/><path fill="#BAA794" d="M62 131l-8 4v-1l8-4zM102.5 104.7l.9-.5c2.5-1.3 4.5-.2 4.5 2.3v9.5l-10 5v-9.5c.1-2.5 2.1-5.5 4.6-6.8z"/><path fill="#39C" d="M103 105.5c2.2-1.1 4-.2 4 2v8l-8 4v-8c0-2.2 1.8-4.9 4-6z"/><path d="M103 105.5c-2.2 1.1-4 3.8-4 6v1c0-2.2 1.8-4.9 4-6s4-.2 4 2v-1c0-2.2-1.8-3.1-4-2z" opacity=".15"/><path fill="#BAA794" d="M105 116.5l-1 .5v-12l1-.5zM102 118l-1 .5v-12l1-.5z"/><path fill="#BAA794" d="M107 108.5l-8 4v-1l8-4zM72.5 119.7l.9-.5c2.6-1.2 4.6-.2 4.6 2.3v9.5l-10 5v-9.5c0-2.5 2-5.5 4.5-6.8z"/><path fill="#39C" d="M73 120.5c2.2-1.1 4-.2 4 2v8l-8 4v-8c0-2.2 1.8-4.9 4-6z"/><path d="M73 120.5c-2.2 1.1-4 3.8-4 6v1c0-2.2 1.8-4.9 4-6s4-.2 4 2v-1c0-2.2-1.8-3.1-4-2z" opacity=".15"/><path fill="#BAA794" d="M75 131.5l-1 .5v-12l1-.5zM72 133l-1 .5v-12l1-.5z"/><path fill="#BAA794" d="M77 123.5l-8 4v-1l8-4zM57.5 145.2l.9-.5c2.5-1.3 4.5-.2 4.5 2.3v9.5l-10 5V152c.1-2.5 2.1-5.5 4.6-6.8z"/><path fill="#39C" d="M58 146c2.2-1.1 4-.2 4 2v8l-8 4v-8c0-2.2 1.8-4.9 4-6z"/><path d="M58 146c-2.2 1.1-4 3.8-4 6v1c0-2.2 1.8-4.9 4-6s4-.2 4 2v-1c0-2.2-1.8-3.1-4-2z" opacity=".15"/><path fill="#BAA794" d="M60 157l-1 .5v-12l1-.5zM57 158.5l-1 .5v-12l1-.5z"/><path fill="#BAA794" d="M62 149l-8 4v-1l8-4zM72.5 137.7l.9-.5c2.6-1.2 4.6-.2 4.6 2.3v9.5l-10 5v-9.5c0-2.5 2-5.5 4.5-6.8z"/><path fill="#39C" d="M73 138.5c2.2-1.1 4-.2 4 2v8l-8 4v-8c0-2.2 1.8-4.9 4-6z"/><path d="M73 138.5c-2.2 1.1-4 3.8-4 6v1c0-2.2 1.8-4.9 4-6 2.2-1.1 4-.2 4 2v-1c0-2.2-1.8-3.1-4-2z" opacity=".15"/><path fill="#BAA794" d="M75 149.5l-1 .5v-12l1-.5zM72 151l-1 .5v-12l1-.5z"/><path fill="#BAA794" d="M77 141.5l-8 4v-1l8-4z"/><g><path fill="#BAA794" d="M102.5 89.7l.9-.5c2.6-1.2 4.6-.2 4.6 2.3V98l-10 5v-6.5c0-2.5 2-5.5 4.5-6.8z"/><path fill="#39C" d="M103 90.5c2.2-1.1 4-.2 4 2v5l-8 4v-5c0-2.2 1.8-4.9 4-6z"/><path fill="#FFF" d="M107 97.5l-8 4v-5z" opacity=".2"/><path d="M103 90.5c-2.2 1.1-4 3.8-4 6v1c0-2.2 1.8-4.9 4-6s4-.2 4 2v-1c0-2.2-1.8-3.1-4-2z" opacity=".15"/><path fill="#BAA794" d="M105 98.5l-1 .5v-9l1-.5zM102 100l-1 .5v-9l1-.5z"/><path fill="#BAA794" d="M107 93.5l-8 4v-1l8-4z"/></g><g><path fill="#BAA794" d="M87.5 97.2l.9-.5C91 95.5 93 96.5 93 99v6.5l-10 5V104c0-2.5 2-5.5 4.5-6.8z"/><path fill="#39C" d="M88 98c2.2-1.1 4-.2 4 2v5l-8 4v-5c0-2.2 1.8-4.9 4-6z"/><path d="M88 98c-2.2 1.1-4 3.8-4 6v1c0-2.2 1.8-4.9 4-6s4-.2 4 2v-1c0-2.2-1.8-3.1-4-2z" opacity=".15"/><path fill="#BAA794" d="M90 106l-1 .5v-9l1-.5zM87 107.5l-1 .5v-9l1-.5z"/><path fill="#BAA794" d="M92 101l-8 4v-1l8-4z"/></g><g><path fill="#BAA794" d="M72.5 104.7l.9-.5c2.6-1.2 4.6-.2 4.6 2.3v6.5l-10 5v-6.5c0-2.5 2-5.5 4.5-6.8z"/><path fill="#39C" d="M73 105.5c2.2-1.1 4-.2 4 2v5l-8 4v-5c0-2.2 1.8-4.9 4-6z"/><path fill="#FFF" d="M77 112.5l-8 4v-3z" opacity=".2"/><path d="M73 105.5c-2.2 1.1-4 3.8-4 6v1c0-2.2 1.8-4.9 4-6s4-.2 4 2v-1c0-2.2-1.8-3.1-4-2z" opacity=".15"/><path fill="#BAA794" d="M75 113.5l-1 .5v-9l1-.5zM72 115l-1 .5v-9l1-.5z"/><path fill="#BAA794" d="M77 108.5l-8 4v-1l8-4z"/></g><g><path fill="#BAA794" d="M57.5 112.2l.9-.5c2.5-1.3 4.5-.2 4.5 2.3v6.5l-10 5V119c.1-2.5 2.1-5.5 4.6-6.8z"/><path fill="#39C" d="M58 113c2.2-1.1 4-.2 4 2v5l-8 4v-5c0-2.2 1.8-4.9 4-6z"/><path d="M58 113c-2.2 1.1-4 3.8-4 6v1c0-2.2 1.8-4.9 4-6 2.2-1.1 4-.2 4 2v-1c0-2.2-1.8-3.1-4-2z" opacity=".15"/><path fill="#BAA794" d="M60 121l-1 .5v-9l1-.5zM57 122.5l-1 .5v-9l1-.5z"/><path fill="#BAA794" d="M62 116l-8 4v-1l8-4z"/></g><path fill="#F8EBCB" d="M63 156.5l-10 5v-1l10-5zM78 149l-10 5v-1l10-5zM93 141.5l-10 5v-1l10-5zM108 134l-10 5v-1l10-5zM63 138.5l-10 5v-1l10-5zM78 131l-10 5v-1l10-5zM93 123.5l-10 5v-1l10-5zM108 116l-10 5v-1l10-5zM63 120.5l-10 5v-1l10-5zM78 113l-10 5v-1l10-5zM93 105.5l-10 5v-1l10-5zM108 98l-10 5v-1l10-5z"/><g><path fill="#539B00" d="M97 141c0 .8-.7 1.8-1.5 2.2s-1.5.1-1.5-.8.7-1.8 1.5-2.2 1.5 0 1.5.8z"/><path fill="#183306" d="M95.5 142.2c-.7.3-1.2.2-1.4-.3-.1.2-.1.4-.1.5 0 .8.7 1.2 1.5.8s1.5-1.4 1.5-2.2c0-.2 0-.3-.1-.5-.2.7-.7 1.4-1.4 1.7z" opacity=".3"/><path fill="#539B00" d="M99 139c0 .8-.7 1.8-1.5 2.2-.8.4-1.5.1-1.5-.8 0-.8.7-1.8 1.5-2.2.8-.4 1.5 0 1.5.8z"/><path fill="#183306" d="M97.5 140.2c-.7.3-1.2.2-1.4-.3-.1.2-.1.4-.1.5 0 .8.7 1.2 1.5.8s1.5-1.4 1.5-2.2c0-.2 0-.3-.1-.5-.2.7-.7 1.4-1.4 1.7z" opacity=".3"/><path fill="#539B00" d="M101 140c0 .8-.7 1.8-1.5 2.2s-1.5.1-1.5-.8.7-1.8 1.5-2.2 1.5 0 1.5.8z"/><path fill="#183306" d="M99.5 141.2c-.7.3-1.2.2-1.4-.3-.1.2-.1.4-.1.5 0 .8.7 1.2 1.5.8s1.5-1.4 1.5-2.2c0-.2 0-.3-.1-.5-.2.7-.7 1.4-1.4 1.7z" opacity=".3"/><path fill="#539B00" d="M99 141c0 .8-.7 1.8-1.5 2.2-.8.4-1.5.1-1.5-.8 0-.8.7-1.8 1.5-2.2.8-.4 1.5 0 1.5.8z"/><path fill="#183306" d="M97.5 142.2c-.7.3-1.2.2-1.4-.3-.1.2-.1.4-.1.5 0 .8.7 1.2 1.5.8s1.5-1.4 1.5-2.2c0-.2 0-.3-.1-.5-.2.7-.7 1.4-1.4 1.7z" opacity=".3"/><path fill="#539B00" d="M97 142c0 .8-.7 1.8-1.5 2.2s-1.5.1-1.5-.8.7-1.8 1.5-2.2 1.5 0 1.5.8z"/><path fill="#183306" d="M95.5 143.2c-.7.3-1.2.2-1.4-.3-.1.2-.1.4-.1.5 0 .8.7 1.2 1.5.8s1.5-1.4 1.5-2.2c0-.2 0-.3-.1-.5-.2.7-.7 1.4-1.4 1.7z" opacity=".3"/><path fill="#539B00" d="M95 143c0 .8-.7 1.8-1.5 2.2-.8.4-1.5.1-1.5-.8s.7-1.8 1.5-2.2c.8-.4 1.5 0 1.5.8z"/><path fill="#183306" d="M93.5 144.2c-.7.3-1.2.2-1.4-.3-.1.2-.1.4-.1.5 0 .8.7 1.2 1.5.8s1.5-1.4 1.5-2.2c0-.2 0-.3-.1-.5-.2.7-.7 1.4-1.4 1.7z" opacity=".3"/><path fill="#539B00" d="M93 143c0 .8-.7 1.8-1.5 2.2s-1.5.1-1.5-.8c0-.8.7-1.8 1.5-2.2s1.5 0 1.5.8z"/><path fill="#183306" d="M91.5 144.2c-.7.3-1.2.2-1.4-.3-.1.2-.1.4-.1.5 0 .8.7 1.2 1.5.8s1.5-1.4 1.5-2.2c0-.2 0-.3-.1-.5-.2.7-.7 1.4-1.4 1.7z" opacity=".3"/><path fill="#539B00" d="M96 139.5c0 .8-.7 1.8-1.5 2.2s-1.5.1-1.5-.7.7-1.8 1.5-2.2 1.5-.1 1.5.7z"/><path fill="#183306" d="M94.5 140.7c-.7.3-1.2.2-1.4-.3-.1.2-.1.4-.1.5 0 .8.7 1.2 1.5.8s1.5-1.4 1.5-2.2c0-.2 0-.3-.1-.5-.2.7-.7 1.4-1.4 1.7z" opacity=".3"/><path fill="#539B00" d="M98 136.5c0 .8-.7 1.8-1.5 2.2s-1.5.1-1.5-.7c0-.8.7-1.8 1.5-2.2s1.5-.1 1.5.7z"/><path fill="#183306" d="M96.5 137.7c-.7.3-1.2.2-1.4-.3-.1.2-.1.4-.1.5 0 .8.7 1.2 1.5.8s1.5-1.4 1.5-2.2c0-.2 0-.3-.1-.5-.2.7-.7 1.4-1.4 1.7z" opacity=".3"/><path fill="#539B00" d="M96 135.5c0 .8-.7 1.8-1.5 2.2s-1.5.1-1.5-.7.7-1.8 1.5-2.2 1.5-.1 1.5.7z"/><path fill="#183306" d="M94.5 136.7c-.7.3-1.2.2-1.4-.3-.1.2-.1.4-.1.5 0 .8.7 1.2 1.5.8s1.5-1.4 1.5-2.2c0-.2 0-.3-.1-.5-.2.7-.7 1.4-1.4 1.7z" opacity=".3"/><path fill="#539B00" d="M98 133.5c0 .8-.7 1.8-1.5 2.2s-1.5.1-1.5-.7c0-.8.7-1.8 1.5-2.2s1.5-.1 1.5.7z"/><path fill="#183306" d="M96.5 134.7c-.7.3-1.2.2-1.4-.3-.1.2-.1.4-.1.5 0 .8.7 1.2 1.5.8s1.5-1.4 1.5-2.2c0-.2 0-.3-.1-.5-.2.7-.7 1.4-1.4 1.7z" opacity=".3"/><path fill="#539B00" d="M97 133c0 .8-.7 1.8-1.5 2.2s-1.5.1-1.5-.8.7-1.8 1.5-2.2 1.5 0 1.5.8z"/><path fill="#183306" d="M95.5 134.2c-.7.3-1.2.2-1.4-.3-.1.2-.1.4-.1.5 0 .8.7 1.2 1.5.8s1.5-1.4 1.5-2.2c0-.2 0-.3-.1-.5-.2.7-.7 1.4-1.4 1.7z" opacity=".3"/><g><path fill="#539B00" d="M98 129.5c0 .8-.7 1.8-1.5 2.2s-1.5.1-1.5-.7c0-.8.7-1.8 1.5-2.2s1.5-.1 1.5.7z"/><path fill="#183306" d="M96.5 130.7c-.7.3-1.2.2-1.4-.3-.1.2-.1.4-.1.5 0 .8.7 1.2 1.5.8s1.5-1.4 1.5-2.2c0-.2 0-.3-.1-.5-.2.7-.7 1.4-1.4 1.7z" opacity=".3"/></g><g><path fill="#539B00" d="M96 129.5c0 .8-.7 1.8-1.5 2.2s-1.5.1-1.5-.7.7-1.8 1.5-2.2 1.5-.1 1.5.7z"/><path fill="#183306" d="M94.5 130.7c-.7.3-1.2.2-1.4-.3-.1.2-.1.4-.1.5 0 .8.7 1.2 1.5.8s1.5-1.4 1.5-2.2c0-.2 0-.3-.1-.5-.2.7-.7 1.4-1.4 1.7z" opacity=".3"/></g><g><path fill="#539B00" d="M97 126c0 .8-.7 1.8-1.5 2.2s-1.5.1-1.5-.8c0-.8.7-1.8 1.5-2.2s1.5 0 1.5.8z"/><path fill="#183306" d="M95.5 127.2c-.7.3-1.2.2-1.4-.3-.1.2-.1.4-.1.5 0 .8.7 1.2 1.5.8s1.5-1.4 1.5-2.2c0-.2 0-.3-.1-.5-.2.7-.7 1.4-1.4 1.7z" opacity=".3"/></g></g><g><path fill="#539B00" d="M68 155.5c0 .8-.7 1.8-1.5 2.2s-1.5.1-1.5-.7.7-1.8 1.5-2.2 1.5-.1 1.5.7z"/><path fill="#183306" d="M66.5 156.7c-.7.3-1.2.2-1.4-.3-.1.2-.1.4-.1.5 0 .8.7 1.2 1.5.8s1.5-1.4 1.5-2.2c0-.2 0-.3-.1-.5-.2.7-.7 1.4-1.4 1.7z" opacity=".3"/><path fill="#539B00" d="M70 153.5c0 .8-.7 1.8-1.5 2.2s-1.5.1-1.5-.7.7-1.8 1.5-2.2 1.5-.1 1.5.7z"/><path fill="#183306" d="M68.5 154.7c-.7.3-1.2.2-1.4-.3-.1.2-.1.4-.1.5 0 .8.7 1.2 1.5.8s1.5-1.4 1.5-2.2c0-.2 0-.3-.1-.5-.2.7-.7 1.4-1.4 1.7z" opacity=".3"/><path fill="#539B00" d="M72 154.5c0 .8-.7 1.8-1.5 2.2-.8.4-1.5.1-1.5-.8 0-.8.7-1.8 1.5-2.2.8-.4 1.5 0 1.5.8z"/><path fill="#183306" d="M70.5 155.7c-.7.3-1.2.2-1.4-.3-.1.2-.1.4-.1.5 0 .8.7 1.2 1.5.8s1.5-1.4 1.5-2.2c0-.2 0-.3-.1-.5-.2.7-.7 1.4-1.4 1.7z" opacity=".3"/><path fill="#539B00" d="M70 155.5c0 .8-.7 1.8-1.5 2.2s-1.5.1-1.5-.7.7-1.8 1.5-2.2 1.5-.1 1.5.7z"/><path fill="#183306" d="M68.5 156.7c-.7.3-1.2.2-1.4-.3-.1.2-.1.4-.1.5 0 .8.7 1.2 1.5.8s1.5-1.4 1.5-2.2c0-.2 0-.3-.1-.5-.2.7-.7 1.4-1.4 1.7z" opacity=".3"/><path fill="#539B00" d="M69 156c0 .8-.7 1.8-1.5 2.2s-1.5.1-1.5-.8.7-1.8 1.5-2.2 1.5 0 1.5.8z"/><path fill="#183306" d="M67.5 157.2c-.7.3-1.2.2-1.4-.3-.1.2-.1.4-.1.5 0 .8.7 1.2 1.5.8s1.5-1.4 1.5-2.2c0-.2 0-.3-.1-.5-.2.7-.7 1.4-1.4 1.7z" opacity=".3"/><path fill="#539B00" d="M68 156.5c0 .8-.7 1.8-1.5 2.2s-1.5.1-1.5-.7.7-1.8 1.5-2.2 1.5-.1 1.5.7z"/><path fill="#183306" d="M66.5 157.7c-.7.3-1.2.2-1.4-.3-.1.2-.1.4-.1.5 0 .8.7 1.2 1.5.8s1.5-1.4 1.5-2.2c0-.2 0-.3-.1-.5-.2.7-.7 1.4-1.4 1.7z" opacity=".3"/><path fill="#539B00" d="M65 158c0 .8-.7 1.8-1.5 2.2-.8.4-1.5.1-1.5-.8s.7-1.8 1.5-2.2c.8-.4 1.5 0 1.5.8z"/><path fill="#183306" d="M63.5 159.2c-.7.3-1.2.2-1.4-.3-.1.2-.1.4-.1.5 0 .8.7 1.2 1.5.8s1.5-1.4 1.5-2.2c0-.2 0-.3-.1-.5-.2.7-.7 1.4-1.4 1.7z" opacity=".3"/><path fill="#539B00" d="M66 157.5c0 .8-.7 1.8-1.5 2.2-.8.4-1.5.1-1.5-.8 0-.8.7-1.8 1.5-2.2.8-.4 1.5 0 1.5.8z"/><path fill="#183306" d="M64.5 158.7c-.7.3-1.2.2-1.4-.3-.1.2-.1.4-.1.5 0 .8.7 1.2 1.5.8s1.5-1.4 1.5-2.2c0-.2 0-.3-.1-.5-.2.7-.7 1.4-1.4 1.7z" opacity=".3"/><path fill="#539B00" d="M64 157.5c0 .8-.7 1.8-1.5 2.2s-1.5.1-1.5-.7.7-1.8 1.5-2.2 1.5-.1 1.5.7z"/><path fill="#183306" d="M62.5 158.7c-.7.3-1.2.2-1.4-.3-.1.2-.1.4-.1.5 0 .8.7 1.2 1.5.8s1.5-1.4 1.5-2.2c0-.2 0-.3-.1-.5-.2.7-.7 1.4-1.4 1.7z" opacity=".3"/><path fill="#539B00" d="M67 154c0 .8-.7 1.8-1.5 2.2s-1.5.1-1.5-.8c0-.8.7-1.8 1.5-2.2s1.5 0 1.5.8z"/><path fill="#183306" d="M65.5 155.2c-.7.3-1.2.2-1.4-.3-.1.2-.1.4-.1.5 0 .8.7 1.2 1.5.8s1.5-1.4 1.5-2.2c0-.2 0-.3-.1-.5-.2.7-.7 1.4-1.4 1.7z" opacity=".3"/><path fill="#539B00" d="M69 151c0 .8-.7 1.8-1.5 2.2s-1.5.1-1.5-.8.7-1.8 1.5-2.2 1.5 0 1.5.8z"/><path fill="#183306" d="M67.5 152.2c-.7.3-1.2.2-1.4-.3-.1.2-.1.4-.1.5 0 .8.7 1.2 1.5.8s1.5-1.4 1.5-2.2c0-.2 0-.3-.1-.5-.2.7-.7 1.4-1.4 1.7z" opacity=".3"/><path fill="#539B00" d="M66 152.5c0 .8-.7 1.8-1.5 2.2-.8.4-1.5.1-1.5-.8 0-.8.7-1.8 1.5-2.2.8-.4 1.5 0 1.5.8z"/><path fill="#183306" d="M64.5 153.7c-.7.3-1.2.2-1.4-.3-.1.2-.1.4-.1.5 0 .8.7 1.2 1.5.8s1.5-1.4 1.5-2.2c0-.2 0-.3-.1-.5-.2.7-.7 1.4-1.4 1.7z" opacity=".3"/><path fill="#539B00" d="M67 150c0 .8-.7 1.8-1.5 2.2s-1.5.1-1.5-.8c0-.8.7-1.8 1.5-2.2s1.5 0 1.5.8z"/><path fill="#183306" d="M65.5 151.2c-.7.3-1.2.2-1.4-.3-.1.2-.1.4-.1.5 0 .8.7 1.2 1.5.8s1.5-1.4 1.5-2.2c0-.2 0-.3-.1-.5-.2.7-.7 1.4-1.4 1.7z" opacity=".3"/><path fill="#539B00" d="M69 148c0 .8-.7 1.8-1.5 2.2s-1.5.1-1.5-.8.7-1.8 1.5-2.2 1.5 0 1.5.8z"/><path fill="#183306" d="M67.5 149.2c-.7.3-1.2.2-1.4-.3-.1.2-.1.4-.1.5 0 .8.7 1.2 1.5.8s1.5-1.4 1.5-2.2c0-.2 0-.3-.1-.5-.2.7-.7 1.4-1.4 1.7z" opacity=".3"/><path fill="#539B00" d="M68 147.5c0 .8-.7 1.8-1.5 2.2s-1.5.1-1.5-.7.7-1.8 1.5-2.2 1.5-.1 1.5.7z"/><path fill="#183306" d="M66.5 148.7c-.7.3-1.2.2-1.4-.3-.1.2-.1.4-.1.5 0 .8.7 1.2 1.5.8s1.5-1.4 1.5-2.2c0-.2 0-.3-.1-.5-.2.7-.7 1.4-1.4 1.7z" opacity=".3"/><path fill="#539B00" d="M66 146.5c0 .8-.7 1.8-1.5 2.2-.8.4-1.5.1-1.5-.8 0-.8.7-1.8 1.5-2.2.8-.4 1.5 0 1.5.8z"/><path fill="#183306" d="M64.5 147.7c-.7.3-1.2.2-1.4-.3-.1.2-.1.4-.1.5 0 .8.7 1.2 1.5.8s1.5-1.4 1.5-2.2c0-.2 0-.3-.1-.5-.2.7-.7 1.4-1.4 1.7z" opacity=".3"/><path fill="#539B00" d="M69 144c0 .8-.7 1.8-1.5 2.2s-1.5.1-1.5-.8.7-1.8 1.5-2.2 1.5 0 1.5.8z"/><path fill="#183306" d="M67.5 145.2c-.7.3-1.2.2-1.4-.3-.1.2-.1.4-.1.5 0 .8.7 1.2 1.5.8s1.5-1.4 1.5-2.2c0-.2 0-.3-.1-.5-.2.7-.7 1.4-1.4 1.7z" opacity=".3"/><path fill="#539B00" d="M67 144c0 .8-.7 1.8-1.5 2.2s-1.5.1-1.5-.8c0-.8.7-1.8 1.5-2.2s1.5 0 1.5.8z"/><path fill="#183306" d="M65.5 145.2c-.7.3-1.2.2-1.4-.3-.1.2-.1.4-.1.5 0 .8.7 1.2 1.5.8s1.5-1.4 1.5-2.2c0-.2 0-.3-.1-.5-.2.7-.7 1.4-1.4 1.7z" opacity=".3"/><path fill="#539B00" d="M66 142.5c0 .8-.7 1.8-1.5 2.2-.8.4-1.5.1-1.5-.8 0-.8.7-1.8 1.5-2.2.8-.4 1.5 0 1.5.8z"/><path fill="#183306" d="M64.5 143.7c-.7.3-1.2.2-1.4-.3-.1.2-.1.4-.1.5 0 .8.7 1.2 1.5.8s1.5-1.4 1.5-2.2c0-.2 0-.3-.1-.5-.2.7-.7 1.4-1.4 1.7z" opacity=".3"/><path fill="#539B00" d="M69 140c0 .8-.7 1.8-1.5 2.2s-1.5.1-1.5-.8.7-1.8 1.5-2.2 1.5 0 1.5.8z"/><path fill="#183306" d="M67.5 141.2c-.7.3-1.2.2-1.4-.3-.1.2-.1.4-.1.5 0 .8.7 1.2 1.5.8s1.5-1.4 1.5-2.2c0-.2 0-.3-.1-.5-.2.7-.7 1.4-1.4 1.7z" opacity=".3"/><path fill="#539B00" d="M70 137.5c0 .8-.7 1.8-1.5 2.2s-1.5.1-1.5-.7.7-1.8 1.5-2.2 1.5-.1 1.5.7z"/><path fill="#183306" d="M68.5 138.7c-.7.3-1.2.2-1.4-.3-.1.2-.1.4-.1.5 0 .8.7 1.2 1.5.8s1.5-1.4 1.5-2.2c0-.2 0-.3-.1-.5-.2.7-.7 1.4-1.4 1.7z" opacity=".3"/><g><path fill="#539B00" d="M72 135.5c0 .8-.7 1.8-1.5 2.2-.8.4-1.5.1-1.5-.8 0-.8.7-1.8 1.5-2.2.8-.4 1.5 0 1.5.8z"/><path fill="#183306" d="M70.5 136.7c-.7.3-1.2.2-1.4-.3-.1.2-.1.4-.1.5 0 .8.7 1.2 1.5.8s1.5-1.4 1.5-2.2c0-.2 0-.3-.1-.5-.2.7-.7 1.4-1.4 1.7z" opacity=".3"/></g><g><path fill="#539B00" d="M69 135c0 .8-.7 1.8-1.5 2.2s-1.5.1-1.5-.8.7-1.8 1.5-2.2 1.5 0 1.5.8z"/><path fill="#183306" d="M67.5 136.2c-.7.3-1.2.2-1.4-.3-.1.2-.1.4-.1.5 0 .8.7 1.2 1.5.8s1.5-1.4 1.5-2.2c0-.2 0-.3-.1-.5-.2.7-.7 1.4-1.4 1.7z" opacity=".3"/></g><g><path fill="#539B00" d="M67 139c0 .8-.7 1.8-1.5 2.2s-1.5.1-1.5-.8c0-.8.7-1.8 1.5-2.2s1.5 0 1.5.8z"/><path fill="#183306" d="M65.5 140.2c-.7.3-1.2.2-1.4-.3-.1.2-.1.4-.1.5 0 .8.7 1.2 1.5.8s1.5-1.4 1.5-2.2c0-.2 0-.3-.1-.5-.2.7-.7 1.4-1.4 1.7z" opacity=".3"/></g><g><path fill="#539B00" d="M65 138c0 .8-.7 1.8-1.5 2.2-.8.4-1.5.1-1.5-.8s.7-1.8 1.5-2.2c.8-.4 1.5 0 1.5.8z"/><path fill="#183306" d="M63.5 139.2c-.7.3-1.2.2-1.4-.3-.1.2-.1.4-.1.5 0 .8.7 1.2 1.5.8s1.5-1.4 1.5-2.2c0-.2 0-.3-.1-.5-.2.7-.7 1.4-1.4 1.7z" opacity=".3"/></g><g><path fill="#539B00" d="M67 133c0 .8-.7 1.8-1.5 2.2s-1.5.1-1.5-.8c0-.8.7-1.8 1.5-2.2s1.5 0 1.5.8z"/><path fill="#183306" d="M65.5 134.2c-.7.3-1.2.2-1.4-.3-.1.2-.1.4-.1.5 0 .8.7 1.2 1.5.8s1.5-1.4 1.5-2.2c0-.2 0-.3-.1-.5-.2.7-.7 1.4-1.4 1.7z" opacity=".3"/></g><g><path fill="#539B00" d="M68 130.5c0 .8-.7 1.8-1.5 2.2s-1.5.1-1.5-.7.7-1.8 1.5-2.2 1.5-.1 1.5.7z"/><path fill="#183306" d="M66.5 131.7c-.7.3-1.2.2-1.4-.3-.1.2-.1.4-.1.5 0 .8.7 1.2 1.5.8s1.5-1.4 1.5-2.2c0-.2 0-.3-.1-.5-.2.7-.7 1.4-1.4 1.7z" opacity=".3"/></g></g><path d="M48 168l64-32V80l-64 32z" opacity=".39"/></g><g><path fill="#762C07" d="M160 112l64-32V24l-64 32z"/><g fill="#BAA794" opacity=".5"><path d="M164 107l-3 1.5v2l3-1.5zM168 105l-3 1.5v2l3-1.5zM172 103l-3 1.5v2l3-1.5zM176 101l-3 1.5v2l3-1.5zM180 99l-3 1.5v2l3-1.5zM184 97l-3 1.5v2l3-1.5zM188 95l-3 1.5v2l3-1.5zM192 93l-3 1.5v2l3-1.5zM196 91l-3 1.5v2l3-1.5zM200 89l-3 1.5v2l3-1.5zM204 87l-3 1.5v2l3-1.5zM208 85l-3 1.5v2l3-1.5zM212 83l-3 1.5v2l3-1.5zM216 81l-3 1.5v2l3-1.5zM220 79l-3 1.5v2l3-1.5zM224 77l-3 1.5v2l3-1.5zM162 105l-2 1v2l2-1zM166 103l-3 1.5v2l3-1.5zM170 101l-3 1.5v2l3-1.5zM174 99l-3 1.5v2l3-1.5zM178 97l-3 1.5v2l3-1.5zM182 95l-3 1.5v2l3-1.5zM186 93l-3 1.5v2l3-1.5zM190 91l-3 1.5v2l3-1.5zM194 89l-3 1.5v2l3-1.5zM198 87l-3 1.5v2l3-1.5zM202 85l-3 1.5v2l3-1.5zM206 83l-3 1.5v2l3-1.5zM210 81l-3 1.5v2l3-1.5zM214 79l-3 1.5v2l3-1.5zM218 77l-3 1.5v2l3-1.5zM222 75l-3 1.5v2l3-1.5zM224 74l-1 .5v2l1-.5zM164 101l-3 1.5v2l3-1.5zM168 99l-3 1.5v2l3-1.5zM172 97l-3 1.5v2l3-1.5zM176 95l-3 1.5v2l3-1.5zM180 93l-3 1.5v2l3-1.5zM184 91l-3 1.5v2l3-1.5zM188 89l-3 1.5v2l3-1.5zM192 87l-3 1.5v2l3-1.5zM196 85l-3 1.5v2l3-1.5zM200 83l-3 1.5v2l3-1.5zM204 81l-3 1.5v2l3-1.5zM208 79l-3 1.5v2l3-1.5zM212 77l-3 1.5v2l3-1.5zM216 75l-3 1.5v2l3-1.5zM220 73l-3 1.5v2l3-1.5zM224 71l-3 1.5v2l3-1.5zM162 99l-2 1v2l2-1zM166 97l-3 1.5v2l3-1.5zM170 95l-3 1.5v2l3-1.5zM174 93l-3 1.5v2l3-1.5zM178 91l-3 1.5v2l3-1.5zM182 89l-3 1.5v2l3-1.5zM186 87l-3 1.5v2l3-1.5zM190 85l-3 1.5v2l3-1.5zM194 83l-3 1.5v2l3-1.5zM198 81l-3 1.5v2l3-1.5zM202 79l-3 1.5v2l3-1.5zM206 77l-3 1.5v2l3-1.5zM210 75l-3 1.5v2l3-1.5zM214 73l-3 1.5v2l3-1.5zM218 71l-3 1.5v2l3-1.5zM222 69l-3 1.5v2l3-1.5zM224 68l-1 .5v2l1-.5zM164 95l-3 1.5v2l3-1.5zM168 93l-3 1.5v2l3-1.5zM172 91l-3 1.5v2l3-1.5zM176 89l-3 1.5v2l3-1.5zM180 87l-3 1.5v2l3-1.5zM184 85l-3 1.5v2l3-1.5zM188 83l-3 1.5v2l3-1.5zM192 81l-3 1.5v2l3-1.5zM196 79l-3 1.5v2l3-1.5zM200 77l-3 1.5v2l3-1.5zM204 75l-3 1.5v2l3-1.5zM208 73l-3 1.5v2l3-1.5zM212 71l-3 1.5v2l3-1.5zM216 69l-3 1.5v2l3-1.5zM220 67l-3 1.5v2l3-1.5zM224 65l-3 1.5v2l3-1.5zM162 93l-2 1v2l2-1zM166 91l-3 1.5v2l3-1.5zM170 89l-3 1.5v2l3-1.5zM174 87l-3 1.5v2l3-1.5zM178 85l-3 1.5v2l3-1.5zM182 83l-3 1.5v2l3-1.5zM186 81l-3 1.5v2l3-1.5zM190 79l-3 1.5v2l3-1.5zM194 77l-3 1.5v2l3-1.5zM198 75l-3 1.5v2l3-1.5zM202 73l-3 1.5v2l3-1.5zM206 71l-3 1.5v2l3-1.5zM210 69l-3 1.5v2l3-1.5zM214 67l-3 1.5v2l3-1.5zM218 65l-3 1.5v2l3-1.5zM222 63l-3 1.5v2l3-1.5zM224 62l-1 .5v2l1-.5zM164 89l-3 1.5v2l3-1.5zM168 87l-3 1.5v2l3-1.5zM172 85l-3 1.5v2l3-1.5zM176 83l-3 1.5v2l3-1.5zM180 81l-3 1.5v2l3-1.5zM184 79l-3 1.5v2l3-1.5zM188 77l-3 1.5v2l3-1.5zM192 75l-3 1.5v2l3-1.5zM196 73l-3 1.5v2l3-1.5zM200 71l-3 1.5v2l3-1.5zM204 69l-3 1.5v2l3-1.5zM208 67l-3 1.5v2l3-1.5zM212 65l-3 1.5v2l3-1.5zM216 63l-3 1.5v2l3-1.5zM220 61l-3 1.5v2l3-1.5zM224 59l-3 1.5v2l3-1.5zM162 87l-2 1v2l2-1zM166 85l-3 1.5v2l3-1.5zM170 83l-3 1.5v2l3-1.5zM174 81l-3 1.5v2l3-1.5zM178 79l-3 1.5v2l3-1.5zM182 77l-3 1.5v2l3-1.5zM186 75l-3 1.5v2l3-1.5zM190 73l-3 1.5v2l3-1.5zM194 71l-3 1.5v2l3-1.5zM198 69l-3 1.5v2l3-1.5zM202 67l-3 1.5v2l3-1.5zM206 65l-3 1.5v2l3-1.5zM210 63l-3 1.5v2l3-1.5zM214 61l-3 1.5v2l3-1.5zM218 59l-3 1.5v2l3-1.5zM222 57l-3 1.5v2l3-1.5zM224 56l-1 .5v2l1-.5zM164 83l-3 1.5v2l3-1.5zM168 81l-3 1.5v2l3-1.5zM172 79l-3 1.5v2l3-1.5zM176 77l-3 1.5v2l3-1.5zM180 75l-3 1.5v2l3-1.5zM184 73l-3 1.5v2l3-1.5zM188 71l-3 1.5v2l3-1.5zM192 69l-3 1.5v2l3-1.5zM196 67l-3 1.5v2l3-1.5zM200 65l-3 1.5v2l3-1.5zM204 63l-3 1.5v2l3-1.5zM208 61l-3 1.5v2l3-1.5zM212 59l-3 1.5v2l3-1.5zM216 57l-3 1.5v2l3-1.5zM220 55l-3 1.5v2l3-1.5zM224 53l-3 1.5v2l3-1.5zM162 81l-2 1v2l2-1zM166 79l-3 1.5v2l3-1.5zM170 77l-3 1.5v2l3-1.5zM174 75l-3 1.5v2l3-1.5zM178 73l-3 1.5v2l3-1.5zM182 71l-3 1.5v2l3-1.5zM186 69l-3 1.5v2l3-1.5zM190 67l-3 1.5v2l3-1.5zM194 65l-3 1.5v2l3-1.5zM198 63l-3 1.5v2l3-1.5zM202 61l-3 1.5v2l3-1.5zM206 59l-3 1.5v2l3-1.5zM210 57l-3 1.5v2l3-1.5zM214 55l-3 1.5v2l3-1.5zM218 53l-3 1.5v2l3-1.5zM222 51l-3 1.5v2l3-1.5zM224 50l-1 .5v2l1-.5zM164 77l-3 1.5v2l3-1.5zM168 75l-3 1.5v2l3-1.5zM172 73l-3 1.5v2l3-1.5zM176 71l-3 1.5v2l3-1.5zM180 69l-3 1.5v2l3-1.5zM184 67l-3 1.5v2l3-1.5zM188 65l-3 1.5v2l3-1.5zM192 63l-3 1.5v2l3-1.5zM196 61l-3 1.5v2l3-1.5zM200 59l-3 1.5v2l3-1.5zM204 57l-3 1.5v2l3-1.5zM208 55l-3 1.5v2l3-1.5zM212 53l-3 1.5v2l3-1.5zM216 51l-3 1.5v2l3-1.5zM220 49l-3 1.5v2l3-1.5zM224 47l-3 1.5v2l3-1.5zM162 75l-2 1v2l2-1zM166 73l-3 1.5v2l3-1.5zM170 71l-3 1.5v2l3-1.5zM174 69l-3 1.5v2l3-1.5zM178 67l-3 1.5v2l3-1.5zM182 65l-3 1.5v2l3-1.5zM186 63l-3 1.5v2l3-1.5zM190 61l-3 1.5v2l3-1.5zM194 59l-3 1.5v2l3-1.5zM198 57l-3 1.5v2l3-1.5zM202 55l-3 1.5v2l3-1.5zM206 53l-3 1.5v2l3-1.5zM210 51l-3 1.5v2l3-1.5zM214 49l-3 1.5v2l3-1.5zM218 47l-3 1.5v2l3-1.5zM222 45l-3 1.5v2l3-1.5zM224 44l-1 .5v2l1-.5zM164 71l-3 1.5v2l3-1.5zM168 69l-3 1.5v2l3-1.5zM172 67l-3 1.5v2l3-1.5zM176 65l-3 1.5v2l3-1.5zM180 63l-3 1.5v2l3-1.5zM184 61l-3 1.5v2l3-1.5zM188 59l-3 1.5v2l3-1.5zM192 57l-3 1.5v2l3-1.5zM196 55l-3 1.5v2l3-1.5zM200 53l-3 1.5v2l3-1.5zM204 51l-3 1.5v2l3-1.5zM208 49l-3 1.5v2l3-1.5zM212 47l-3 1.5v2l3-1.5zM216 45l-3 1.5v2l3-1.5zM220 43l-3 1.5v2l3-1.5zM224 41l-3 1.5v2l3-1.5zM162 69l-2 1v2l2-1zM166 67l-3 1.5v2l3-1.5zM170 65l-3 1.5v2l3-1.5zM174 63l-3 1.5v2l3-1.5zM178 61l-3 1.5v2l3-1.5zM182 59l-3 1.5v2l3-1.5zM186 57l-3 1.5v2l3-1.5zM190 55l-3 1.5v2l3-1.5zM194 53l-3 1.5v2l3-1.5zM198 51l-3 1.5v2l3-1.5zM202 49l-3 1.5v2l3-1.5zM206 47l-3 1.5v2l3-1.5zM210 45l-3 1.5v2l3-1.5zM214 43l-3 1.5v2l3-1.5zM218 41l-3 1.5v2l3-1.5zM222 39l-3 1.5v2l3-1.5zM224 38l-1 .5v2l1-.5zM164 65l-3 1.5v2l3-1.5zM168 63l-3 1.5v2l3-1.5zM172 61l-3 1.5v2l3-1.5zM176 59l-3 1.5v2l3-1.5zM180 57l-3 1.5v2l3-1.5zM184 55l-3 1.5v2l3-1.5zM188 53l-3 1.5v2l3-1.5zM192 51l-3 1.5v2l3-1.5zM196 49l-3 1.5v2l3-1.5zM200 47l-3 1.5v2l3-1.5zM204 45l-3 1.5v2l3-1.5zM208 43l-3 1.5v2l3-1.5zM212 41l-3 1.5v2l3-1.5zM216 39l-3 1.5v2l3-1.5zM220 37l-3 1.5v2l3-1.5zM224 35l-3 1.5v2l3-1.5zM162 63l-2 1v2l2-1zM166 61l-3 1.5v2l3-1.5zM170 59l-3 1.5v2l3-1.5zM174 57l-3 1.5v2l3-1.5zM178 55l-3 1.5v2l3-1.5zM182 53l-3 1.5v2l3-1.5zM186 51l-3 1.5v2l3-1.5zM190 49l-3 1.5v2l3-1.5zM194 47l-3 1.5v2l3-1.5zM198 45l-3 1.5v2l3-1.5zM202 43l-3 1.5v2l3-1.5zM206 41l-3 1.5v2l3-1.5zM210 39l-3 1.5v2l3-1.5zM214 37l-3 1.5v2l3-1.5zM218 35l-3 1.5v2l3-1.5zM222 33l-3 1.5v2l3-1.5zM224 32l-1 .5v2l1-.5zM164 59l-3 1.5v2l3-1.5zM168 57l-3 1.5v2l3-1.5zM172 55l-3 1.5v2l3-1.5zM176 53l-3 1.5v2l3-1.5zM180 51l-3 1.5v2l3-1.5zM184 49l-3 1.5v2l3-1.5zM188 47l-3 1.5v2l3-1.5zM192 45l-3 1.5v2l3-1.5zM196 43l-3 1.5v2l3-1.5zM200 41l-3 1.5v2l3-1.5zM204 39l-3 1.5v2l3-1.5zM208 37l-3 1.5v2l3-1.5zM212 35l-3 1.5v2l3-1.5zM216 33l-3 1.5v2l3-1.5zM220 31l-3 1.5v2l3-1.5zM224 29l-3 1.5v2l3-1.5zM162 57l-2 1v2l2-1zM166 55l-3 1.5v2l3-1.5zM170 53l-3 1.5v2l3-1.5zM174 51l-3 1.5v2l3-1.5zM178 49l-3 1.5v2l3-1.5zM182 47l-3 1.5v2l3-1.5zM186 45l-3 1.5v2l3-1.5zM190 43l-3 1.5v2l3-1.5zM194 41l-3 1.5v2l3-1.5zM198 39l-3 1.5v2l3-1.5zM202 37l-3 1.5v2l3-1.5zM206 35l-3 1.5v2l3-1.5zM210 33l-3 1.5v2l3-1.5zM214 31l-3 1.5v2l3-1.5zM218 29l-3 1.5v2l3-1.5zM222 27l-3 1.5v2l3-1.5zM224 26l-1 .5v2l1-.5z"/></g><path fill="#BAA794" d="M214.5 66.7l.9-.5c2.6-1.2 4.6-.2 4.6 2.3V78l-10 5v-9.5c0-2.5 2-5.5 4.5-6.8z"/><path fill="#39C" d="M215 67.5c2.2-1.1 4-.2 4 2v8l-8 4v-8c0-2.2 1.8-4.9 4-6z"/><path fill="#FFF" d="M219 77.5l-8 4v-4z" opacity=".2"/><path d="M215 67.5c-2.2 1.1-4 3.8-4 6v1c0-2.2 1.8-4.9 4-6s4-.2 4 2v-1c0-2.2-1.8-3.1-4-2z" opacity=".15"/><path fill="#BAA794" d="M217 78.5l-1 .5V67l1-.5zM214 80l-1 .5v-12l1-.5z"/><path fill="#BAA794" d="M219 70.5l-8 4v-1l8-4zM199.5 56.2l.9-.5c2.5-1.3 4.5-.2 4.5 2.3v9.5l-10 5V63c.1-2.5 2.1-5.5 4.6-6.8z"/><path fill="#39C" d="M200 57c2.2-1.1 4-.2 4 2v8l-8 4v-8c0-2.2 1.8-4.9 4-6z"/><path fill="#FFF" d="M204 67l-8 4v-4z" opacity=".2"/><path d="M200 57c-2.2 1.1-4 3.8-4 6v1c0-2.2 1.8-4.9 4-6s4-.2 4 2v-1c0-2.2-1.8-3.1-4-2z" opacity=".15"/><path fill="#BAA794" d="M202 68l-1 .5v-12l1-.5zM199 69.5l-1 .5V58l1-.5z"/><path fill="#BAA794" d="M204 60l-8 4v-1l8-4zM199.5 74.2l.9-.5c2.5-1.3 4.5-.2 4.5 2.3v9.5l-10 5V81c.1-2.5 2.1-5.5 4.6-6.8z"/><path fill="#39C" d="M200 75c2.2-1.1 4-.2 4 2v8l-8 4v-8c0-2.2 1.8-4.9 4-6z"/><path fill="#FFF" d="M204 85l-8 4v-8z" opacity=".2"/><path d="M200 75c-2.2 1.1-4 3.8-4 6v1c0-2.2 1.8-4.9 4-6s4-.2 4 2v-1c0-2.2-1.8-3.1-4-2z" opacity=".15"/><path fill="#BAA794" d="M202 86l-1 .5v-12l1-.5zM199 87.5l-1 .5V76l1-.5z"/><path fill="#BAA794" d="M204 78l-8 4v-1l8-4zM169.5 71.2l.9-.5c2.5-1.3 4.5-.2 4.5 2.3v9.5l-10 5V78c.1-2.5 2.1-5.5 4.6-6.8z"/><path fill="#39C" d="M170 72c2.2-1.1 4-.2 4 2v8l-8 4v-8c0-2.2 1.8-4.9 4-6z"/><path fill="#FFF" d="M174 82l-8 4v-8z" opacity=".2"/><path d="M170 72c-2.2 1.1-4 3.8-4 6v1c0-2.2 1.8-4.9 4-6s4-.2 4 2v-1c0-2.2-1.8-3.1-4-2z" opacity=".15"/><path fill="#BAA794" d="M172 83l-1 .5v-12l1-.5zM169 84.5l-1 .5V73l1-.5z"/><path fill="#BAA794" d="M174 75l-8 4v-1l8-4zM214.5 48.7l.9-.5c2.6-1.2 4.6-.2 4.6 2.3V60l-10 5v-9.5c0-2.5 2-5.5 4.5-6.8z"/><path fill="#39C" d="M215 49.5c2.2-1.1 4-.2 4 2v8l-8 4v-8c0-2.2 1.8-4.9 4-6z"/><path d="M215 49.5c-2.2 1.1-4 3.8-4 6v1c0-2.2 1.8-4.9 4-6s4-.2 4 2v-1c0-2.2-1.8-3.1-4-2z" opacity=".15"/><path fill="#BAA794" d="M217 60.5l-1 .5V49l1-.5zM214 62l-1 .5v-12l1-.5z"/><path fill="#BAA794" d="M219 52.5l-8 4v-1l8-4zM184.5 63.7l.9-.5c2.6-1.2 4.6-.2 4.6 2.3V75l-10 5v-9.5c0-2.5 2-5.5 4.5-6.8z"/><path fill="#39C" d="M185 64.5c2.2-1.1 4-.2 4 2v8l-8 4v-8c0-2.2 1.8-4.9 4-6z"/><path d="M185 64.5c-2.2 1.1-4 3.8-4 6v1c0-2.2 1.8-4.9 4-6s4-.2 4 2v-1c0-2.2-1.8-3.1-4-2z" opacity=".15"/><path fill="#BAA794" d="M187 75.5l-1 .5V64l1-.5zM184 77l-1 .5v-12l1-.5z"/><path fill="#BAA794" d="M189 67.5l-8 4v-1l8-4zM169.5 89.2l.9-.5c2.5-1.3 4.5-.2 4.5 2.3v9.5l-10 5V96c.1-2.5 2.1-5.5 4.6-6.8z"/><path fill="#39C" d="M170 90c2.2-1.1 4-.2 4 2v8l-8 4v-8c0-2.2 1.8-4.9 4-6z"/><path d="M170 90c-2.2 1.1-4 3.8-4 6v1c0-2.2 1.8-4.9 4-6s4-.2 4 2v-1c0-2.2-1.8-3.1-4-2z" opacity=".15"/><path fill="#BAA794" d="M172 101l-1 .5v-12l1-.5zM169 102.5l-1 .5V91l1-.5z"/><path fill="#BAA794" d="M174 93l-8 4v-1l8-4zM184.5 81.7l.9-.5c2.6-1.2 4.6-.2 4.6 2.3V93l-10 5v-9.5c0-2.5 2-5.5 4.5-6.8z"/><path fill="#39C" d="M185 82.5c2.2-1.1 4-.2 4 2v8l-8 4v-8c0-2.2 1.8-4.9 4-6z"/><path d="M185 82.5c-2.2 1.1-4 3.8-4 6v1c0-2.2 1.8-4.9 4-6s4-.2 4 2v-1c0-2.2-1.8-3.1-4-2z" opacity=".15"/><path fill="#BAA794" d="M187 93.5l-1 .5V82l1-.5zM184 95l-1 .5v-12l1-.5z"/><path fill="#BAA794" d="M189 85.5l-8 4v-1l8-4z"/><g><path fill="#BAA794" d="M214.5 33.7l.9-.5c2.6-1.2 4.6-.2 4.6 2.3V42l-10 5v-6.5c0-2.5 2-5.5 4.5-6.8z"/><path fill="#39C" d="M215 34.5c2.2-1.1 4-.2 4 2v5l-8 4v-5c0-2.2 1.8-4.9 4-6z"/><path fill="#FFF" d="M219 41.5l-8 4v-5z" opacity=".2"/><path d="M215 34.5c-2.2 1.1-4 3.8-4 6v1c0-2.2 1.8-4.9 4-6s4-.2 4 2v-1c0-2.2-1.8-3.1-4-2z" opacity=".15"/><path fill="#BAA794" d="M217 42.5l-1 .5v-9l1-.5zM214 44l-1 .5v-9l1-.5z"/><path fill="#BAA794" d="M219 37.5l-8 4v-1l8-4z"/></g><g><path fill="#BAA794" d="M199.5 41.2l.9-.5c2.5-1.3 4.5-.2 4.5 2.3v6.5l-10 5V48c.1-2.5 2.1-5.5 4.6-6.8z"/><path fill="#39C" d="M200 42c2.2-1.1 4-.2 4 2v5l-8 4v-5c0-2.2 1.8-4.9 4-6z"/><path d="M200 42c-2.2 1.1-4 3.8-4 6v1c0-2.2 1.8-4.9 4-6s4-.2 4 2v-1c0-2.2-1.8-3.1-4-2z" opacity=".15"/><path fill="#BAA794" d="M202 50l-1 .5v-9l1-.5zM199 51.5l-1 .5v-9l1-.5z"/><path fill="#BAA794" d="M204 45l-8 4v-1l8-4z"/></g><g><path fill="#BAA794" d="M184.5 48.7l.9-.5c2.6-1.2 4.6-.2 4.6 2.3V57l-10 5v-6.5c0-2.5 2-5.5 4.5-6.8z"/><path fill="#39C" d="M185 49.5c2.2-1.1 4-.2 4 2v5l-8 4v-5c0-2.2 1.8-4.9 4-6z"/><path fill="#FFF" d="M189 56.5l-8 4v-3z" opacity=".2"/><path d="M185 49.5c-2.2 1.1-4 3.8-4 6v1c0-2.2 1.8-4.9 4-6 2.2-1.1 4-.2 4 2v-1c0-2.2-1.8-3.1-4-2z" opacity=".15"/><path fill="#BAA794" d="M187 57.5l-1 .5v-9l1-.5zM184 59l-1 .5v-9l1-.5z"/><path fill="#BAA794" d="M189 52.5l-8 4v-1l8-4z"/></g><g><path fill="#BAA794" d="M169.5 56.2l.9-.5c2.5-1.3 4.5-.2 4.5 2.3v6.5l-10 5V63c.1-2.5 2.1-5.5 4.6-6.8z"/><path fill="#39C" d="M170 57c2.2-1.1 4-.2 4 2v5l-8 4v-5c0-2.2 1.8-4.9 4-6z"/><path d="M170 57c-2.2 1.1-4 3.8-4 6v1c0-2.2 1.8-4.9 4-6s4-.2 4 2v-1c0-2.2-1.8-3.1-4-2z" opacity=".15"/><path fill="#BAA794" d="M172 65l-1 .5v-9l1-.5zM169 66.5l-1 .5v-9l1-.5z"/><path fill="#BAA794" d="M174 60l-8 4v-1l8-4z"/></g><path fill="#F8EBCB" d="M175 100.5l-10 5v-1l10-5zM190 93l-10 5v-1l10-5zM205 85.5l-10 5v-1l10-5zM220 78l-10 5v-1l10-5zM175 82.5l-10 5v-1l10-5zM190 75l-10 5v-1l10-5zM205 67.5l-10 5v-1l10-5zM220 60l-10 5v-1l10-5zM175 64.5l-10 5v-1l10-5zM190 57l-10 5v-1l10-5zM205 49.5l-10 5v-1l10-5zM220 42l-10 5v-1l10-5z"/><g><path fill="#539B00" d="M194 92.5c0 .8-.7 1.8-1.5 2.2s-1.5.1-1.5-.7c0-.8.7-1.8 1.5-2.2s1.5-.1 1.5.7z"/><path fill="#183306" d="M192.5 93.7c-.7.3-1.2.2-1.4-.3-.1.2-.1.4-.1.5 0 .8.7 1.2 1.5.8s1.5-1.4 1.5-2.2c0-.2 0-.3-.1-.5-.2.7-.7 1.4-1.4 1.7z" opacity=".3"/><path fill="#539B00" d="M196 90.5c0 .8-.7 1.8-1.5 2.2s-1.5.1-1.5-.7c0-.8.7-1.8 1.5-2.2s1.5-.1 1.5.7z"/><path fill="#183306" d="M194.5 91.7c-.7.3-1.2.2-1.4-.3-.1.2-.1.4-.1.5 0 .8.7 1.2 1.5.8s1.5-1.4 1.5-2.2c0-.2 0-.3-.1-.5-.2.7-.7 1.4-1.4 1.7z" opacity=".3"/><path fill="#539B00" d="M198 91.5c0 .8-.7 1.8-1.5 2.2s-1.5.1-1.5-.7c0-.8.7-1.8 1.5-2.2s1.5-.1 1.5.7z"/><path fill="#183306" d="M196.5 92.7c-.7.3-1.2.2-1.4-.3-.1.2-.1.4-.1.5 0 .8.7 1.2 1.5.8s1.5-1.4 1.5-2.2c0-.2 0-.3-.1-.5-.2.7-.7 1.4-1.4 1.7z" opacity=".3"/><path fill="#539B00" d="M200 89.5c0 .8-.7 1.8-1.5 2.2s-1.5.1-1.5-.7.7-1.8 1.5-2.2 1.5-.1 1.5.7z"/><path fill="#183306" d="M198.5 90.7c-.7.3-1.2.2-1.4-.3-.1.2-.1.4-.1.5 0 .8.7 1.2 1.5.8s1.5-1.4 1.5-2.2c0-.2 0-.3-.1-.5-.2.7-.7 1.4-1.4 1.7z" opacity=".3"/><path fill="#539B00" d="M196 92.5c0 .8-.7 1.8-1.5 2.2s-1.5.1-1.5-.7c0-.8.7-1.8 1.5-2.2s1.5-.1 1.5.7z"/><path fill="#183306" d="M194.5 93.7c-.7.3-1.2.2-1.4-.3-.1.2-.1.4-.1.5 0 .8.7 1.2 1.5.8s1.5-1.4 1.5-2.2c0-.2 0-.3-.1-.5-.2.7-.7 1.4-1.4 1.7z" opacity=".3"/><path fill="#539B00" d="M194 93.5c0 .8-.7 1.8-1.5 2.2s-1.5.1-1.5-.7c0-.8.7-1.8 1.5-2.2s1.5-.1 1.5.7z"/><path fill="#183306" d="M192.5 94.7c-.7.3-1.2.2-1.4-.3-.1.2-.1.4-.1.5 0 .8.7 1.2 1.5.8s1.5-1.4 1.5-2.2c0-.2 0-.3-.1-.5-.2.7-.7 1.4-1.4 1.7z" opacity=".3"/><path fill="#539B00" d="M192 94.5c0 .8-.7 1.8-1.5 2.2s-1.5.1-1.5-.7c0-.8.7-1.8 1.5-2.2s1.5-.1 1.5.7z"/><path fill="#183306" d="M190.5 95.7c-.7.3-1.2.2-1.4-.3-.1.2-.1.4-.1.5 0 .8.7 1.2 1.5.8s1.5-1.4 1.5-2.2c0-.2 0-.3-.1-.5-.2.7-.7 1.4-1.4 1.7z" opacity=".3"/><path fill="#539B00" d="M195 93c0 .8-.7 1.8-1.5 2.2-.8.4-1.5.1-1.5-.8 0-.8.7-1.8 1.5-2.2.8-.4 1.5 0 1.5.8z"/><path fill="#183306" d="M193.5 94.2c-.7.3-1.2.2-1.4-.3-.1.2-.1.4-.1.5 0 .8.7 1.2 1.5.8.8-.4 1.5-1.4 1.5-2.2 0-.2 0-.3-.1-.5-.2.7-.7 1.4-1.4 1.7z" opacity=".3"/><path fill="#539B00" d="M191 95c0 .8-.7 1.8-1.5 2.2s-1.5.1-1.5-.8.7-1.8 1.5-2.2 1.5 0 1.5.8z"/><path fill="#183306" d="M189.5 96.2c-.7.3-1.2.2-1.4-.3-.1.2-.1.4-.1.5 0 .8.7 1.2 1.5.8s1.5-1.4 1.5-2.2c0-.2 0-.3-.1-.5-.2.7-.7 1.4-1.4 1.7z" opacity=".3"/><path fill="#539B00" d="M190 94.5c0 .8-.7 1.8-1.5 2.2s-1.5.1-1.5-.7c0-.8.7-1.8 1.5-2.2s1.5-.1 1.5.7z"/><path fill="#183306" d="M188.5 95.7c-.7.3-1.2.2-1.4-.3-.1.2-.1.4-.1.5 0 .8.7 1.2 1.5.8s1.5-1.4 1.5-2.2c0-.2 0-.3-.1-.5-.2.7-.7 1.4-1.4 1.7z" opacity=".3"/><path fill="#539B00" d="M188 96.5c0 .8-.7 1.8-1.5 2.2-.8.4-1.5.1-1.5-.8 0-.8.7-1.8 1.5-2.2.8-.4 1.5 0 1.5.8z"/><path fill="#183306" d="M186.5 97.7c-.7.3-1.2.2-1.4-.3-.1.2-.1.4-.1.5 0 .8.7 1.2 1.5.8s1.5-1.4 1.5-2.2c0-.2 0-.3-.1-.5-.2.7-.7 1.4-1.4 1.7z" opacity=".3"/><path fill="#539B00" d="M193 91c0 .8-.7 1.8-1.5 2.2-.8.4-1.5.1-1.5-.8s.7-1.8 1.5-2.2c.8-.4 1.5 0 1.5.8z"/><path fill="#183306" d="M191.5 92.2c-.7.3-1.2.2-1.4-.3-.1.2-.1.4-.1.5 0 .8.7 1.2 1.5.8s1.5-1.4 1.5-2.2c0-.2 0-.3-.1-.5-.2.7-.7 1.4-1.4 1.7z" opacity=".3"/><path fill="#539B00" d="M195 88c0 .8-.7 1.8-1.5 2.2-.8.4-1.5.1-1.5-.8 0-.8.7-1.8 1.5-2.2.8-.4 1.5 0 1.5.8z"/><path fill="#183306" d="M193.5 89.2c-.7.3-1.2.2-1.4-.3-.1.2-.1.4-.1.5 0 .8.7 1.2 1.5.8.8-.4 1.5-1.4 1.5-2.2 0-.2 0-.3-.1-.5-.2.7-.7 1.4-1.4 1.7z" opacity=".3"/><path fill="#539B00" d="M193 87c0 .8-.7 1.8-1.5 2.2-.8.4-1.5.1-1.5-.8s.7-1.8 1.5-2.2c.8-.4 1.5 0 1.5.8z"/><path fill="#183306" d="M191.5 88.2c-.7.3-1.2.2-1.4-.3-.1.2-.1.4-.1.5 0 .8.7 1.2 1.5.8s1.5-1.4 1.5-2.2c0-.2 0-.3-.1-.5-.2.7-.7 1.4-1.4 1.7z" opacity=".3"/><path fill="#539B00" d="M195 85c0 .8-.7 1.8-1.5 2.2-.8.4-1.5.1-1.5-.8 0-.8.7-1.8 1.5-2.2.8-.4 1.5 0 1.5.8z"/><path fill="#183306" d="M193.5 86.2c-.7.3-1.2.2-1.4-.3-.1.2-.1.4-.1.5 0 .8.7 1.2 1.5.8.8-.4 1.5-1.4 1.5-2.2 0-.2 0-.3-.1-.5-.2.7-.7 1.4-1.4 1.7z" opacity=".3"/><path fill="#539B00" d="M194 84.5c0 .8-.7 1.8-1.5 2.2s-1.5.1-1.5-.7c0-.8.7-1.8 1.5-2.2s1.5-.1 1.5.7z"/><path fill="#183306" d="M192.5 85.7c-.7.3-1.2.2-1.4-.3-.1.2-.1.4-.1.5 0 .8.7 1.2 1.5.8s1.5-1.4 1.5-2.2c0-.2 0-.3-.1-.5-.2.7-.7 1.4-1.4 1.7z" opacity=".3"/><path fill="#539B00" d="M192 83.5c0 .8-.7 1.8-1.5 2.2s-1.5.1-1.5-.7c0-.8.7-1.8 1.5-2.2s1.5-.1 1.5.7z"/><path fill="#183306" d="M190.5 84.7c-.7.3-1.2.2-1.4-.3-.1.2-.1.4-.1.5 0 .8.7 1.2 1.5.8s1.5-1.4 1.5-2.2c0-.2 0-.3-.1-.5-.2.7-.7 1.4-1.4 1.7z" opacity=".3"/><path fill="#539B00" d="M195 81c0 .8-.7 1.8-1.5 2.2-.8.4-1.5.1-1.5-.8 0-.8.7-1.8 1.5-2.2.8-.4 1.5 0 1.5.8z"/><path fill="#183306" d="M193.5 82.2c-.7.3-1.2.2-1.4-.3-.1.2-.1.4-.1.5 0 .8.7 1.2 1.5.8.8-.4 1.5-1.4 1.5-2.2 0-.2 0-.3-.1-.5-.2.7-.7 1.4-1.4 1.7z" opacity=".3"/><path fill="#539B00" d="M196 78.5c0 .8-.7 1.8-1.5 2.2s-1.5.1-1.5-.7c0-.8.7-1.8 1.5-2.2s1.5-.1 1.5.7z"/><path fill="#183306" d="M194.5 79.7c-.7.3-1.2.2-1.4-.3-.1.2-.1.4-.1.5 0 .8.7 1.2 1.5.8s1.5-1.4 1.5-2.2c0-.2 0-.3-.1-.5-.2.7-.7 1.4-1.4 1.7z" opacity=".3"/><path fill="#539B00" d="M193 81c0 .8-.7 1.8-1.5 2.2-.8.4-1.5.1-1.5-.8s.7-1.8 1.5-2.2c.8-.4 1.5 0 1.5.8z"/><path fill="#183306" d="M191.5 82.2c-.7.3-1.2.2-1.4-.3-.1.2-.1.4-.1.5 0 .8.7 1.2 1.5.8s1.5-1.4 1.5-2.2c0-.2 0-.3-.1-.5-.2.7-.7 1.4-1.4 1.7z" opacity=".3"/><path fill="#539B00" d="M192 78.5c0 .8-.7 1.8-1.5 2.2s-1.5.1-1.5-.7c0-.8.7-1.8 1.5-2.2s1.5-.1 1.5.7z"/><path fill="#183306" d="M190.5 79.7c-.7.3-1.2.2-1.4-.3-.1.2-.1.4-.1.5 0 .8.7 1.2 1.5.8s1.5-1.4 1.5-2.2c0-.2 0-.3-.1-.5-.2.7-.7 1.4-1.4 1.7z" opacity=".3"/><path fill="#539B00" d="M194 69.5c0 .8-.7 1.8-1.5 2.2s-1.5.1-1.5-.7c0-.8.7-1.8 1.5-2.2s1.5-.1 1.5.7z"/><path fill="#183306" d="M192.5 70.7c-.7.3-1.2.2-1.4-.3-.1.2-.1.4-.1.5 0 .8.7 1.2 1.5.8s1.5-1.4 1.5-2.2c0-.2 0-.3-.1-.5-.2.7-.7 1.4-1.4 1.7z" opacity=".3"/><path fill="#539B00" d="M195 66c0 .8-.7 1.8-1.5 2.2-.8.4-1.5.1-1.5-.8 0-.8.7-1.8 1.5-2.2.8-.4 1.5 0 1.5.8z"/><path fill="#183306" d="M193.5 67.2c-.7.3-1.2.2-1.4-.3-.1.2-.1.4-.1.5 0 .8.7 1.2 1.5.8.8-.4 1.5-1.4 1.5-2.2 0-.2 0-.3-.1-.5-.2.7-.7 1.4-1.4 1.7z" opacity=".3"/><path fill="#539B00" d="M193 64c0 .8-.7 1.8-1.5 2.2-.8.4-1.5.1-1.5-.8s.7-1.8 1.5-2.2c.8-.4 1.5 0 1.5.8z"/><path fill="#183306" d="M191.5 65.2c-.7.3-1.2.2-1.4-.3-.1.2-.1.4-.1.5 0 .8.7 1.2 1.5.8s1.5-1.4 1.5-2.2c0-.2 0-.3-.1-.5-.2.7-.7 1.4-1.4 1.7z" opacity=".3"/><path fill="#539B00" d="M195 77c0 .8-.7 1.8-1.5 2.2-.8.4-1.5.1-1.5-.8 0-.8.7-1.8 1.5-2.2.8-.4 1.5 0 1.5.8z"/><path fill="#183306" d="M193.5 78.2c-.7.3-1.2.2-1.4-.3-.1.2-.1.4-.1.5 0 .8.7 1.2 1.5.8.8-.4 1.5-1.4 1.5-2.2 0-.2 0-.3-.1-.5-.2.7-.7 1.4-1.4 1.7z" opacity=".3"/><path fill="#539B00" d="M198 74.5c0 .8-.7 1.8-1.5 2.2s-1.5.1-1.5-.7c0-.8.7-1.8 1.5-2.2s1.5-.1 1.5.7z"/><path fill="#183306" d="M196.5 75.7c-.7.3-1.2.2-1.4-.3-.1.2-.1.4-.1.5 0 .8.7 1.2 1.5.8s1.5-1.4 1.5-2.2c0-.2 0-.3-.1-.5-.2.7-.7 1.4-1.4 1.7z" opacity=".3"/><path fill="#539B00" d="M200 71.5c0 .8-.7 1.8-1.5 2.2s-1.5.1-1.5-.7.7-1.8 1.5-2.2 1.5-.1 1.5.7z"/><path fill="#183306" d="M198.5 72.7c-.7.3-1.2.2-1.4-.3-.1.2-.1.4-.1.5 0 .8.7 1.2 1.5.8s1.5-1.4 1.5-2.2c0-.2 0-.3-.1-.5-.2.7-.7 1.4-1.4 1.7z" opacity=".3"/><g><path fill="#539B00" d="M201 73c0 .8-.7 1.8-1.5 2.2s-1.5.1-1.5-.8c0-.8.7-1.8 1.5-2.2s1.5 0 1.5.8z"/><path fill="#183306" d="M199.5 74.2c-.7.3-1.2.2-1.4-.3-.1.2-.1.4-.1.5 0 .8.7 1.2 1.5.8s1.5-1.4 1.5-2.2c0-.2 0-.3-.1-.5-.2.7-.7 1.4-1.4 1.7z" opacity=".3"/></g><g><path fill="#539B00" d="M203 71c0 .8-.7 1.8-1.5 2.2s-1.5.1-1.5-.8c0-.8.7-1.8 1.5-2.2s1.5 0 1.5.8z"/><path fill="#183306" d="M201.5 72.2c-.7.3-1.2.2-1.4-.3-.1.2-.1.4-.1.5 0 .8.7 1.2 1.5.8s1.5-1.4 1.5-2.2c0-.2 0-.3-.1-.5-.2.7-.7 1.4-1.4 1.7z" opacity=".3"/></g><g><path fill="#539B00" d="M206 70.5c0 .8-.7 1.8-1.5 2.2-.8.4-1.5.1-1.5-.8 0-.8.7-1.8 1.5-2.2.8-.4 1.5 0 1.5.8z"/><path fill="#183306" d="M204.5 71.7c-.7.3-1.2.2-1.4-.3-.1.2-.1.4-.1.5 0 .8.7 1.2 1.5.8s1.5-1.4 1.5-2.2c0-.2 0-.3-.1-.5-.2.7-.7 1.4-1.4 1.7z" opacity=".3"/></g><g><path fill="#539B00" d="M196 73.5c0 .8-.7 1.8-1.5 2.2s-1.5.1-1.5-.7c0-.8.7-1.8 1.5-2.2s1.5-.1 1.5.7z"/><path fill="#183306" d="M194.5 74.7c-.7.3-1.2.2-1.4-.3-.1.2-.1.4-.1.5 0 .8.7 1.2 1.5.8s1.5-1.4 1.5-2.2c0-.2 0-.3-.1-.5-.2.7-.7 1.4-1.4 1.7z" opacity=".3"/></g><g><path fill="#539B00" d="M195 72c0 .8-.7 1.8-1.5 2.2-.8.4-1.5.1-1.5-.8 0-.8.7-1.8 1.5-2.2.8-.4 1.5 0 1.5.8z"/><path fill="#183306" d="M193.5 73.2c-.7.3-1.2.2-1.4-.3-.1.2-.1.4-.1.5 0 .8.7 1.2 1.5.8.8-.4 1.5-1.4 1.5-2.2 0-.2 0-.3-.1-.5-.2.7-.7 1.4-1.4 1.7z" opacity=".3"/></g><g><path fill="#539B00" d="M193 76c0 .8-.7 1.8-1.5 2.2-.8.4-1.5.1-1.5-.8s.7-1.8 1.5-2.2c.8-.4 1.5 0 1.5.8z"/><path fill="#183306" d="M191.5 77.2c-.7.3-1.2.2-1.4-.3-.1.2-.1.4-.1.5 0 .8.7 1.2 1.5.8s1.5-1.4 1.5-2.2c0-.2 0-.3-.1-.5-.2.7-.7 1.4-1.4 1.7z" opacity=".3"/></g><g><path fill="#539B00" d="M193 72c0 .8-.7 1.8-1.5 2.2-.8.4-1.5.1-1.5-.8s.7-1.8 1.5-2.2c.8-.4 1.5 0 1.5.8z"/><path fill="#183306" d="M191.5 73.2c-.7.3-1.2.2-1.4-.3-.1.2-.1.4-.1.5 0 .8.7 1.2 1.5.8s1.5-1.4 1.5-2.2c0-.2 0-.3-.1-.5-.2.7-.7 1.4-1.4 1.7z" opacity=".3"/></g><g><path fill="#539B00" d="M190 77.5c0 .8-.7 1.8-1.5 2.2s-1.5.1-1.5-.7c0-.8.7-1.8 1.5-2.2s1.5-.1 1.5.7z"/><path fill="#183306" d="M188.5 78.7c-.7.3-1.2.2-1.4-.3-.1.2-.1.4-.1.5 0 .8.7 1.2 1.5.8s1.5-1.4 1.5-2.2c0-.2 0-.3-.1-.5-.2.7-.7 1.4-1.4 1.7z" opacity=".3"/></g></g><path d="M160 112l64-32V24l-64 32z" opacity=".39"/></g><g><path fill="#F8EBCB" d="M176 120l-4 2-10-5v10l-5 2.5-10-5v10l-5 2.5-10-5v10l-4 2V88l24-24h24z"/><path fill="#BAA794" d="M132 142l1-.5v-8l8 4 1-.5v-18l-10 5z"/><path d="M133 133.5l8 4v-17l-8 4z" opacity=".06"/><path fill="#BAA794" d="M147 134.5l1-.5v-8l8 4 1-.5v-18l-10 5z"/><path d="M148 126l8 4v-17l-8 4z" opacity=".06"/><path fill="#BAA794" d="M162 127l1-.5v-8l8 4 1-.5v-18l-10 5z"/><path d="M163 118.5l8 4v-17l-8 4z" opacity=".06"/><path fill="#BAA794" d="M147 98.5l10-5v14l-10 5z"/><path fill="#39C" d="M148 99l8-4v12l-8 4z"/><path fill="#FFF" d="M148 102l8 5-8 4z" opacity=".2"/><path d="M148 99l8-4v1l-8 4z" opacity=".15"/><path fill="#BAA794" d="M154 108l-1 .5v-12l1-.5zM151 109.5l-1 .5V98l1-.5z"/><path fill="#BAA794" d="M156 99l-8 4v-1l8-4zM156 103l-8 4v-1l8-4zM132 106l10-5v14l-10 5z"/><path fill="#39C" d="M133 106.5l8-4v12l-8 4z"/><path fill="#FFF" d="M133 115.5l8-1-8 4z" opacity=".2"/><path d="M133 106.5l8-4v1l-8 4z" opacity=".15"/><path d="M133 106.5l8-4v8z" opacity=".15"/><path fill="#BAA794" d="M139 115.5l-1 .5v-12l1-.5zM136 117l-1 .5v-12l1-.5z"/><path fill="#BAA794" d="M141 106.5l-8 4v-1l8-4zM141 110.5l-8 4v-1l8-4z"/><g><path fill="#BAA794" d="M162 91l10-5v14l-10 5z"/><path fill="#39C" d="M163 91.5l8-4v12l-8 4z"/><path d="M163 91.5l8-4v1l-8 4z" opacity=".15"/><path d="M163 91.5l8-4v10z" opacity=".15"/><path fill="#BAA794" d="M169 100.5l-1 .5V89l1-.5zM166 102l-1 .5v-12l1-.5z"/><path fill="#BAA794" d="M171 91.5l-8 4v-1l8-4zM171 95.5l-8 4v-1l8-4z"/></g><g><path fill="#BAA794" d="M162 76l10-5v11l-10 5z"/><path fill="#39C" d="M163 76.5l8-4v9l-8 4z"/><path d="M163 76.5l8-4v9z" opacity=".15"/><path d="M163 76.5l8-4v1l-8 4z" opacity=".15"/><path fill="#BAA794" d="M169 82.5l-1 .5v-9l1-.5zM166 84l-1 .5v-9l1-.5z"/><path fill="#BAA794" d="M171 76.5l-8 4v-1l8-4z"/></g><g><path fill="#BAA794" d="M147 83.5l10-5v11l-10 5z"/><path fill="#39C" d="M148 84l8-4v9l-8 4z"/><path fill="#FFF" d="M148 87v6l8-4z" opacity=".2"/><path d="M148 84l8-4v1l-8 4z" opacity=".15"/><path fill="#BAA794" d="M154 90l-1 .5v-9l1-.5zM151 91.5l-1 .5v-9l1-.5z"/><path fill="#BAA794" d="M156 84l-8 4v-1l8-4z"/></g><g><path fill="#BAA794" d="M132 91l10-5v11l-10 5z"/><path fill="#39C" d="M133 91.5l8-4v9l-8 4z"/><path d="M133 91.5l8-4v5z" opacity=".15"/><path d="M133 91.5l8-4v1l-8 4z" opacity=".15"/><path fill="#BAA794" d="M139 97.5l-1 .5v-9l1-.5zM136 99l-1 .5v-9l1-.5z"/><path fill="#BAA794" d="M141 91.5l-8 4v-1l8-4z"/></g><g><path fill="#BAA794" d="M156 72c0 2.2-1.8 4.9-4 6-2.2 1.1-4 .2-4-2s1.8-4.9 4-6c2.2-1.1 4-.2 4 2z"/><path fill="#FFF" d="M155 72.5c0 1.7-1.3 3.7-3 4.5-1.7.8-3 .2-3-1.5s1.3-3.7 3-4.5c1.7-.8 3-.2 3 1.5z"/><path fill="#2D3134" d="M152.2 73.6v-1.9l-.4.3v2.4l.4-.3 2-.9v-.5z"/></g><path d="M176 120l-48 24V88l24-24h24z" opacity=".39"/></g><path fill="#F8EBCB" d="M128 144V88l-16-8v56z"/><path d="M128 144V88l-16-8v56z" opacity=".06"/><path fill="#2D3134" d="M112 32H88L64 56l64 32 24-24h24z"/><path d="M88 32L64 56l64 32 24-24z" opacity=".06"/><path d="M112 32l64 32h-24L88 32z" opacity=".39"/></svg>